    <svg width="42" height="42" viewBox="0 0 42 42" fill="none"
                                            xmlns="http://www.w3.org/2000/svg">
                                            <path
                                                d="M34.3 36.75L23.275 25.725C22.4 26.425 21.3938 26.9792 20.2563 27.3875C19.1188 27.7958 17.9083 28 16.625 28C13.4458 28 10.7555 26.8987 8.554 24.696C6.3525 22.4933 5.25117 19.803 5.25 16.625C5.24883 13.447 6.35017 10.7567 8.554 8.554C10.7578 6.35133 13.4482 5.25 16.625 5.25C19.8018 5.25 22.4928 6.35133 24.6978 8.554C26.9028 10.7567 28.0035 13.447 28 16.625C28 17.9083 27.7958 19.1187 27.3875 20.2562C26.9792 21.3937 26.425 22.4 25.725 23.275L36.75 34.3L34.3 36.75ZM16.625 24.5C18.8125 24.5 20.6722 23.7347 22.204 22.204C23.7358 20.6733 24.5012 18.8137 24.5 16.625C24.4988 14.4363 23.7335 12.5773 22.204 11.0478C20.6745 9.51825 18.8148 8.75233 16.625 8.75C14.4352 8.74767 12.5761 9.51358 11.0478 11.0478C9.51942 12.5819 8.7535 14.441 8.75 16.625C8.7465 18.809 9.51242 20.6687 11.0478 22.204C12.5831 23.7393 14.4422 24.5047 16.625 24.5Z"
                                                fill="white" />
                                        </svg>