<svg width="33" height="35" viewBox="0 0 33 35" fill="none" xmlns="http://www.w3.org/2000/svg">
<mask id="mask0_1539_2018" style="mask-type:luminance" maskUnits="userSpaceOnUse" x="0" y="0" width="33" height="35">
<path d="M0 0H33V35H0V0Z" fill="white"/>
</mask>
<g mask="url(#mask0_1539_2018)">
<path d="M16.5 22.4634C12.4605 22.4634 8.67694 21.8634 5.84616 20.7738C3.43284 19.845 1.93359 18.5945 1.93359 17.5104C1.93359 16.4263 3.43284 15.1758 5.84616 14.247C7.09642 13.7657 8.53263 13.38 10.0945 13.0994C9.96394 14.5185 9.89652 15.9951 9.89652 17.5C9.89652 18.2852 9.91515 19.0744 9.95195 19.8455C9.97889 20.4112 10.4324 20.8489 10.9664 20.8178C11.4996 20.7892 11.91 20.3075 11.883 19.7419C11.8479 19.0051 11.8301 18.2508 11.8301 17.5C11.8301 15.8845 11.9106 14.3075 12.0659 12.8088C13.4822 12.6432 14.9728 12.5574 16.5 12.5574C17.0011 12.5574 17.506 12.5669 18.0007 12.5856C18.5345 12.6055 18.9823 12.1634 19.0014 11.5974C19.0204 11.0315 18.6032 10.5563 18.0696 10.5361C17.552 10.5165 17.0239 10.5066 16.5 10.5066C15.077 10.5066 13.6809 10.5785 12.3392 10.7179C12.6041 9.0568 12.9683 7.52951 13.4231 6.20047C14.2989 3.64082 15.4778 2.05078 16.5 2.05078C17.5222 2.05078 18.7012 3.64082 19.577 6.20047C20.6042 9.20281 21.17 13.2157 21.17 17.5C21.17 19.1231 21.0887 20.7073 20.9321 22.2123C19.5163 22.3776 18.0264 22.4634 16.5 22.4634ZM30.7267 13.7912C30.0646 13.3091 29.2606 12.8649 28.3415 12.4704L28.609 12.3745C29.1149 12.1931 29.3863 11.6112 29.2152 11.0747C29.0443 10.5381 28.4952 10.2506 27.9898 10.4317L24.9368 11.5264C24.6486 11.6298 24.423 11.8711 24.328 12.1777C24.233 12.4843 24.2797 12.8205 24.454 13.0851L26.2997 15.8869C26.4877 16.1724 26.7879 16.3251 27.0931 16.3251C27.2842 16.3251 27.4773 16.2652 27.6459 16.1402C28.0836 15.8159 28.1906 15.1766 27.8847 14.7124L27.676 14.3956C28.4362 14.7257 29.0952 15.0907 29.6324 15.4819C30.5572 16.1552 31.0664 16.8756 31.0664 17.5104C31.0664 18.5945 29.5672 19.845 27.1538 20.7738C25.9031 21.2552 24.4663 21.6411 22.9036 21.9218C23.0355 20.4961 23.1035 19.0124 23.1035 17.5C23.1035 12.9832 22.4967 8.72177 21.3946 5.50088C20.837 3.87112 20.1752 2.57633 19.4278 1.65231C18.8181 0.898514 17.8151 0 16.5 0C15.1849 0 14.1819 0.898514 13.5722 1.65231C12.8248 2.57633 12.163 3.87112 11.6055 5.50088C11.0574 7.10261 10.6319 8.96164 10.3425 10.9815C8.44252 11.2883 6.69371 11.7391 5.18661 12.3191C3.64998 12.9106 2.42911 13.6123 1.55796 14.4051C0.847236 15.0518 0 16.1156 0 17.5104C0 18.9052 0.847236 19.9689 1.55796 20.6157C2.42911 21.4084 3.64998 22.1102 5.18661 22.7016C8.22344 23.8705 12.2413 24.5141 16.5 24.5141C17.9219 24.5141 19.3169 24.4424 20.6575 24.3033C20.3929 25.9562 20.0298 27.476 19.577 28.7995C18.7012 31.3591 17.5222 32.9492 16.5 32.9492C15.9123 32.9492 15.2374 32.3859 14.5996 31.3632C14.2417 30.7893 13.9061 30.091 13.6005 29.2892L13.8063 29.45C14.236 29.7859 14.8414 29.689 15.1582 29.2331C15.475 28.7772 15.3834 28.1354 14.9536 27.7993L12.3597 25.7712C12.1146 25.5797 11.7989 25.5216 11.5077 25.6146C11.2162 25.7075 10.983 25.9405 10.8783 26.2436L9.76884 29.4526C9.58508 29.9843 9.84244 30.5734 10.3437 30.7683C10.4535 30.811 10.5659 30.8312 10.6765 30.8312C11.0705 30.8312 11.4407 30.5739 11.5842 30.1586L11.7083 29.7998C12.923 33.1409 14.6072 35 16.5 35C17.8151 35 18.8181 34.1014 19.4278 33.3476C20.1752 32.4236 20.837 31.1288 21.3946 29.4991C21.9407 27.9029 22.3652 26.0513 22.6545 24.0398C24.5556 23.7329 26.3054 23.282 27.8134 22.7016C29.35 22.1102 30.5709 21.4084 31.442 20.6157C32.1528 19.9689 33 18.9052 33 17.5104C33 16.5688 32.6056 15.1592 30.7267 13.7912Z" fill="white"/>
</g>
</svg>
