<svg width="142" height="64" viewBox="0 0 142 64" fill="none" xmlns="http://www.w3.org/2000/svg">
<path fill-rule="evenodd" clip-rule="evenodd" d="M141 6.00009C141 3.23863 138.761 1 136 1L6.00103 1C3.23964 1 1.00107 3.23852 1.00103 5.9999L1.00019 49.9999C1.00014 52.7614 3.23871 55 6.00017 55H57.5429C58.6391 55.2697 59.9696 55.7723 61.1221 56.7085C63.0907 58.3078 64.0208 59.2743 65.145 60.4425C65.4416 60.7506 65.7516 61.0728 66.0978 61.4243C67.7563 63.1086 68.5856 63.1086 70.2441 61.4243L70.2442 61.4242C71.9027 59.7401 73.5612 58.0559 75.2197 56.7085C76.2261 55.891 76.9271 55.3215 78.2491 55H135.999C138.761 55 140.999 52.7615 140.999 50.0001L141 6.00009Z" fill="black"/>
<path d="M141 6.00009L140.5 6.00009L141 6.00009ZM1.00103 5.9999L1.50103 5.99991L1.50103 5.99991L1.00103 5.9999ZM1.00019 49.9999L0.500187 49.9999L0.500187 49.9999L1.00019 49.9999ZM57.5429 55L57.6624 54.5145L57.6035 54.5H57.5429V55ZM61.1221 56.7085L60.8069 57.0966L60.8069 57.0966L61.1221 56.7085ZM65.145 60.4425L65.5053 60.0958L65.5053 60.0958L65.145 60.4425ZM66.0978 61.4243L66.454 61.0735L66.454 61.0735L66.0978 61.4243ZM70.2441 61.4243L69.8905 61.0708L69.8878 61.0735L70.2441 61.4243ZM70.2442 61.4242L70.5978 61.7778L70.6005 61.7751L70.2442 61.4242ZM75.2197 56.7085L75.535 57.0966L75.535 57.0966L75.2197 56.7085ZM78.2491 55V54.5H78.1892L78.131 54.5142L78.2491 55ZM140.999 50.0001L141.499 50.0001L140.999 50.0001ZM136 1.5C138.485 1.5 140.5 3.51477 140.5 6.00009L141.5 6.0001C141.5 2.9625 139.038 0.5 136 0.5V1.5ZM6.00103 1.5L136 1.5V0.5L6.00103 0.5V1.5ZM1.50103 5.99991C1.50107 3.51467 3.51578 1.5 6.00103 1.5V0.5C2.96351 0.5 0.501077 2.96237 0.501026 5.9999L1.50103 5.99991ZM1.50019 49.9999L1.50103 5.99991L0.501026 5.99989L0.500187 49.9999L1.50019 49.9999ZM6.00017 54.5C3.51486 54.5 1.50015 52.4852 1.50019 49.9999L0.500187 49.9999C0.500137 53.0375 2.96256 55.5 6.00017 55.5V54.5ZM57.5429 54.5H6.00017V55.5H57.5429V54.5ZM57.4234 55.4855C58.4758 55.7445 59.7303 56.2221 60.8069 57.0966L61.4374 56.3205C60.2089 55.3225 58.8024 54.795 57.6624 54.5145L57.4234 55.4855ZM60.8069 57.0966C62.7525 58.6772 63.6664 59.6271 64.7848 60.7892L65.5053 60.0958C64.3752 58.9215 63.4289 57.9384 61.4374 56.3205L60.8069 57.0966ZM64.7847 60.7892C65.0811 61.0972 65.393 61.4213 65.7415 61.7752L66.454 61.0735C66.1101 60.7243 65.802 60.4041 65.5053 60.0958L64.7847 60.7892ZM65.7415 61.7752C66.5671 62.6135 67.3211 63.1875 68.1709 63.1875C69.0208 63.1875 69.7748 62.6135 70.6003 61.7752L69.8878 61.0735C69.0549 61.9193 68.565 62.1875 68.1709 62.1875C67.7769 62.1875 67.2869 61.9193 66.454 61.0735L65.7415 61.7752ZM70.5976 61.7779L70.5978 61.7778L69.8907 61.0707L69.8905 61.0708L70.5976 61.7779ZM70.6005 61.7751C72.2637 60.0861 73.9021 58.4231 75.535 57.0966L74.9044 56.3205C73.2203 57.6886 71.5417 59.394 69.8879 61.0734L70.6005 61.7751ZM75.535 57.0966C76.5393 56.2807 77.1643 55.7784 78.3673 55.4858L78.131 54.5142C76.6899 54.8646 75.9128 55.5013 74.9044 56.3205L75.535 57.0966ZM135.999 54.5H78.2491V55.5H135.999V54.5ZM140.499 50.0001C140.499 52.4853 138.484 54.5 135.999 54.5V55.5C139.037 55.5 141.499 53.0376 141.499 50.0001L140.499 50.0001ZM140.5 6.00009L140.499 50.0001L141.499 50.0001L141.5 6.0001L140.5 6.00009Z" fill="white" fill-opacity="0.65"/>
</svg>
