<svg xmlns="http://www.w3.org/2000/svg" width="25" height="25" viewBox="0 0 25 25" fill="none">
<circle cx="12.5" cy="12.5" r="12" stroke="#ADA08C"/>
<path d="M18.0781 18.875C16.6378 18.875 15.2064 18.5238 13.7839 17.8214C12.3613 17.1189 11.0833 16.201 9.95 15.0677C8.81667 13.9344 7.89583 12.6535 7.1875 11.225C6.47917 9.79653 6.125 8.36215 6.125 6.92188C6.125 6.79201 6.1309 6.65625 6.14271 6.51458C6.15451 6.37292 6.17222 6.24306 6.19583 6.125H9.95L10.6583 9.47187L8.58646 11.5615C9.24757 12.6594 9.98837 13.6156 10.8089 14.4302C11.6293 15.2448 12.559 15.9354 13.5979 16.5021L15.6698 14.3594L18.875 15.0677V18.8219C18.7569 18.8337 18.6271 18.8455 18.4854 18.8573C18.3438 18.8691 18.208 18.875 18.0781 18.875ZM8.05521 10.5875L9.48958 9.13542L9.08229 7.1875H7.1875C7.1875 7.64792 7.25833 8.1526 7.4 8.70156C7.54167 9.25052 7.76007 9.87917 8.05521 10.5875ZM14.5896 17.0156C15.0736 17.2399 15.599 17.4229 16.1656 17.5646C16.7323 17.7062 17.2812 17.7889 17.8125 17.8125V15.9177L15.9885 15.5458L14.5896 17.0156Z" fill="#ADA08C"/>
</svg>