<svg width="25" height="25" viewBox="0 0 25 25" fill="none" xmlns="http://www.w3.org/2000/svg">
<path fill-rule="evenodd" clip-rule="evenodd" d="M19.7951 7.51479C19.9439 7.66817 19.9903 7.89381 19.9143 8.09347L15.3143 20.1684C15.2479 20.3427 15.0977 20.4714 14.9154 20.5104C14.733 20.5494 14.5433 20.4934 14.4114 20.3615L9.32825 15.2783L4.27647 13.5944C4.05298 13.5199 3.90175 13.3114 3.9004 13.0758C3.89905 12.8402 4.04787 12.63 4.27048 12.5529L19.2204 7.37793C19.4223 7.30804 19.6464 7.3614 19.7951 7.51479ZM10.476 14.8704L14.5887 18.9831L18.2444 9.38678L10.476 14.8704ZM15.9109 9.68757L6.16017 13.0628L9.53541 14.1879L15.9109 9.68757Z" fill="#ADA08C"/>
<path fill-rule="evenodd" clip-rule="evenodd" d="M0.450195 12.4991C0.450195 5.84398 5.84495 0.449219 12.5001 0.449219C19.1553 0.449219 24.55 5.84398 24.55 12.4991C24.55 19.1543 19.1553 24.5491 12.5001 24.5491C5.84495 24.5491 0.450195 19.1543 0.450195 12.4991ZM12.5001 1.54922C6.45247 1.54922 1.5502 6.45149 1.5502 12.4991C1.5502 18.5468 6.45247 23.4491 12.5001 23.4491C18.5478 23.4491 23.45 18.5468 23.45 12.4991C23.45 6.45149 18.5478 1.54922 12.5001 1.54922Z" fill="#ADA08C"/>
</svg>
