 <svg width="36" height="61" viewBox="0 0 36 61" fill="none" xmlns="http://www.w3.org/2000/svg">
                    <path d="M35.0445 34.176L35.0356 42.8393C35.0392 46.2049 33.8065 49.4568 31.5672 51.989C30.178 53.5614 29.5105 55.3358 29.5268 57.4133L29.5418 59.2822C29.5427 59.3917 29.5218 59.5002 29.4803 59.6017C29.4388 59.7031 29.3776 59.7955 29.3 59.8735C29.2225 59.9515 29.1302 60.0136 29.0284 60.0563C28.9266 60.099 28.8173 60.1214 28.7068 60.1223H28.6999C28.4778 60.1222 28.2648 60.0353 28.1071 59.8805C27.9495 59.7256 27.86 59.5153 27.8583 59.2955L27.8433 57.4263C27.824 54.9572 28.6507 52.7586 30.3003 50.8916C32.2708 48.663 33.3555 45.801 33.3521 42.8392L33.361 34.1739C33.3624 33.2884 33.0145 32.6011 32.3818 32.2384C31.788 31.898 31.0262 31.8939 30.4407 32.2277C29.8194 32.5821 29.4769 33.2728 29.4761 34.1724C29.476 34.3933 29.3872 34.6051 29.2294 34.7613C29.0715 34.9174 28.8575 35.0052 28.6344 35.0052H28.6338C28.4107 35.005 28.1968 34.9171 28.039 34.7608C27.8813 34.6046 27.7927 34.3927 27.7927 34.1718V31.1716C27.7938 29.7748 26.7578 29.1486 25.7308 29.1475H25.7277C24.7012 29.1475 23.6653 29.7715 23.6631 31.167V34.1718C23.6631 34.3928 23.5744 34.6048 23.4166 34.7611C23.2587 34.9174 23.0446 35.0052 22.8214 35.0052C22.5981 35.0052 22.384 34.9174 22.2261 34.7611C22.0683 34.6048 21.9796 34.3928 21.9796 34.1718V31.0536C21.9812 30.0601 21.4787 29.5635 21.0567 29.3216C20.3773 28.932 19.4633 28.9313 18.7825 29.3197C18.359 29.5611 17.854 30.0577 17.8531 31.0513C17.8531 31.0802 17.8517 31.1086 17.8487 31.1367L17.8472 34.1723C17.8471 34.3932 17.7583 34.6051 17.6005 34.7613C17.4427 34.9174 17.2286 35.0052 17.0055 35.0052C16.8949 35.0051 16.7851 34.9835 16.683 34.9416C16.5809 34.8996 16.4881 34.8382 16.41 34.7608C16.3319 34.6833 16.2699 34.5914 16.2276 34.4903C16.1854 34.3892 16.1637 34.2808 16.1637 34.1714L16.1727 16.0881C16.1737 15.5449 15.9593 15.0332 15.569 14.646C15.1787 14.2589 14.6625 14.0458 14.1154 14.0458H14.1115C13.566 14.0458 13.0514 14.2585 12.66 14.6451C12.268 15.0325 12.0522 15.543 12.0522 16.0826L12.0371 38.1203C12.037 38.2947 11.9816 38.4647 11.8788 38.6063C11.7759 38.7479 11.6308 38.854 11.4638 38.9096C11.2968 38.9652 11.1164 38.9676 10.948 38.9163C10.7796 38.865 10.6317 38.7628 10.5252 38.6239L6.93424 33.9435C5.96455 32.6771 4.66088 32.3459 3.76495 32.4572C3.06629 32.5442 2.5242 32.8899 2.31503 33.3818C2.05093 34.0032 2.29809 34.8579 3.01095 35.7882C6.24695 40.0103 7.37774 43.1964 8.28641 45.7566C9.00222 47.7735 9.56766 49.3666 10.9225 50.9003C12.5934 52.7953 13.3959 54.9308 13.3764 57.4292L13.3614 59.2955C13.3597 59.5153 13.2702 59.7256 13.1126 59.8805C12.9549 60.0353 12.7419 60.1222 12.5198 60.1223H12.5131C12.4025 60.1214 12.2932 60.099 12.1914 60.0563C12.0896 60.0136 11.9973 59.9515 11.9197 59.8735C11.8422 59.7955 11.7809 59.7031 11.7394 59.6017C11.6979 59.5002 11.677 59.3917 11.6779 59.2822L11.6929 57.4161C11.7092 55.3435 11.0425 53.5709 9.65478 51.9971C8.08702 50.2222 7.44329 48.4089 6.69813 46.3092C5.78325 43.7312 4.74632 40.8095 1.66972 36.7957C0.196657 34.8731 0.469594 33.4264 0.763366 32.7353C1.20855 31.6879 2.25221 30.9658 3.55482 30.8035C5.29462 30.5865 7.10249 31.4041 8.27526 32.9361L10.3553 35.6472L10.3687 16.082C10.3687 15.0972 10.7601 14.1677 11.4708 13.4654C12.1799 12.7645 13.1169 12.3789 14.11 12.3789H14.117C15.1128 12.3789 16.0523 12.7659 16.7606 13.4685C17.4689 14.1712 17.8581 15.1022 17.8562 16.09L17.8503 27.9319C17.881 27.9131 17.9108 27.8933 17.9422 27.8753C19.1458 27.1892 20.6994 27.1907 21.9004 27.8793C22.272 28.0916 22.6006 28.3705 22.8694 28.7017C23.5927 27.895 24.6638 27.4806 25.7279 27.4806H25.7326C27.5143 27.4827 29.3148 28.6456 29.4649 30.8672C29.5097 30.8389 29.554 30.8099 29.6004 30.7835C30.7143 30.148 32.1033 30.1528 33.2253 30.796C34.3837 31.46 35.0468 32.6919 35.0445 34.176Z" fill="white"></path>
                    <path d="M12.1056 1.89419C12.1079 2.1606 12.0054 2.41722 11.8202 2.60876L10.3259 4.10313L24.97 4.10313L23.4757 2.60889C23.2853 2.41843 23.1782 2.16011 23.1782 1.89074C23.1782 1.75736 23.2044 1.62529 23.2555 1.50206C23.3065 1.37883 23.3813 1.26686 23.4756 1.17254C23.5699 1.07822 23.6819 1.0034 23.8051 0.952346C23.9283 0.901294 24.0604 0.875012 24.1938 0.875C24.4631 0.874976 24.7215 0.981959 24.912 1.17241L28.14 4.40045C28.3305 4.59094 28.4375 4.8493 28.4375 5.11869C28.4375 5.38808 28.3305 5.64644 28.14 5.83693L24.9121 9.06483C24.7216 9.25527 24.4633 9.36226 24.194 9.36226C23.9246 9.36226 23.6663 9.25527 23.4759 9.06483C23.2776 8.86653 23.1783 8.60653 23.1783 8.34666C23.1783 8.08679 23.2776 7.82679 23.4759 7.62849L24.9701 6.13425L10.3259 6.13425L11.8202 7.62849C11.9154 7.72258 11.9911 7.83458 12.0429 7.95805C12.0948 8.08151 12.1216 8.214 12.122 8.34789C12.1225 8.48178 12.0964 8.61444 12.0453 8.73822C11.9943 8.862 11.9193 8.97446 11.8246 9.06914C11.7299 9.16382 11.6175 9.23885 11.4937 9.28991C11.3699 9.34096 11.2373 9.36704 11.1034 9.36664C10.9695 9.36624 10.837 9.33937 10.7135 9.28757C10.5901 9.23578 10.4781 9.16008 10.384 9.06483L7.15592 5.8368C6.95762 5.6385 6.85847 5.3785 6.85847 5.11862C6.85847 4.85875 6.95762 4.59888 7.15592 4.40045L10.384 1.17241C10.5755 0.987255 10.8321 0.884767 11.0985 0.887035C11.365 0.889303 11.6198 0.996145 11.8082 1.18454C11.9966 1.37293 12.1034 1.62779 12.1056 1.89419Z" fill="white"></path>
                </svg>