<svg width="40" height="40" viewBox="0 0 40 40" fill="none" xmlns="http://www.w3.org/2000/svg">
<path fill-rule="evenodd" clip-rule="evenodd" d="M9.65588 9.65468C8.72717 10.5834 7.99048 11.6859 7.48787 12.8993C6.98525 14.1128 6.72656 15.4133 6.72656 16.7267C6.72656 18.0401 6.98525 19.3406 7.48787 20.554C7.99048 21.7674 8.72717 22.87 9.65588 23.7987C10.5846 24.7274 11.6871 25.4641 12.9005 25.9667C14.114 26.4693 15.4145 26.728 16.7279 26.728C18.0413 26.728 19.3418 26.4693 20.5552 25.9667C21.7686 25.4641 22.8712 24.7274 23.7999 23.7987C25.6215 21.9127 26.6294 19.3866 26.6066 16.7647C26.5838 14.1427 25.5321 11.6346 23.6781 9.7805C21.824 7.92641 19.3159 6.87472 16.6939 6.85194C14.0719 6.82916 11.5459 7.8371 9.65988 9.65868M22.3879 22.3867C21.648 23.1431 20.7655 23.7453 19.7913 24.1583C18.8171 24.5714 17.7707 24.787 16.7126 24.7929C15.6545 24.7987 14.6058 24.5946 13.6271 24.1923C12.6485 23.79 11.7593 23.1976 11.0112 22.4493C10.2631 21.7011 9.67083 20.8118 9.26873 19.8331C8.86663 18.8544 8.66269 17.8056 8.6687 16.7475C8.67471 15.6894 8.89057 14.643 9.30377 13.6689C9.71696 12.6948 10.3193 11.8124 11.0759 11.0727C12.5819 9.60025 14.6079 8.78114 16.714 8.79311C18.8202 8.80508 20.8367 9.64717 22.3259 11.1366C23.8151 12.6261 24.6569 14.6427 24.6684 16.7489C24.68 18.8551 23.8606 20.8809 22.3879 22.3867Z" fill="white"/>
<path d="M22.3823 25.2503C22.0073 24.8751 21.7967 24.3662 21.7969 23.8356C21.7971 23.3051 22.008 22.7964 22.3833 22.4213C22.7586 22.0463 23.2674 21.8358 23.798 21.8359C24.3285 21.8361 24.8373 22.0471 25.2123 22.4223L30.8683 28.0803C31.0593 28.2648 31.2117 28.4855 31.3165 28.7295C31.4213 28.9735 31.4765 29.236 31.4788 29.5015C31.4811 29.7671 31.4305 30.0305 31.3299 30.2762C31.2294 30.522 31.0809 30.7453 30.8931 30.9331C30.7053 31.1209 30.482 31.2694 30.2362 31.37C29.9904 31.4705 29.727 31.5212 29.4615 31.5188C29.1959 31.5165 28.9335 31.4614 28.6895 31.3565C28.4455 31.2517 28.2248 31.0994 28.0403 30.9083L22.3823 25.2503Z" fill="white"/>
</svg>
