<svg width="28" height="31" viewBox="0 0 28 31" fill="none" xmlns="http://www.w3.org/2000/svg">
<path fill-rule="evenodd" clip-rule="evenodd" d="M26.9766 6.00004C26.9766 3.2386 24.738 1 21.9766 1L6.00048 1C3.23907 1 1.0005 3.23855 1.00048 5.99996L1.00036 21.4121C1.00034 24.1736 3.23893 26.4122 6.00036 26.4122H7.88259C8.27608 26.4122 8.67215 26.4476 9.04185 26.5823C9.42663 26.7225 9.83149 26.9248 10.1988 27.2167C11.1457 27.9693 11.5932 28.4242 12.134 28.9739C12.2766 29.1189 12.4257 29.2705 12.5922 29.436C13.3901 30.2285 13.789 30.2285 14.5868 29.436L14.5868 29.4359C15.3847 28.6434 16.1825 27.8508 16.9803 27.2167C17.3039 26.9595 17.5619 26.7545 17.8873 26.6016C18.2391 26.4364 18.636 26.4122 19.0247 26.4122H21.9764C24.7379 26.4122 26.9764 24.1736 26.9764 21.4122L26.9766 6.00004Z" fill="black"/>
<path d="M26.9766 6.00004L26.4766 6.00003L26.9766 6.00004ZM1.00048 5.99996L0.500477 5.99996L1.00048 5.99996ZM1.00036 21.4121L1.50036 21.4121L1.00036 21.4121ZM10.1988 27.2167L10.5099 26.8253V26.8253L10.1988 27.2167ZM12.134 28.9739L12.4904 28.6233L12.4904 28.6233L12.134 28.9739ZM12.5922 29.436L12.2399 29.7907H12.2399L12.5922 29.436ZM14.5868 29.436L14.9392 29.7907L14.9404 29.7895L14.5868 29.436ZM14.5868 29.4359L14.2345 29.0812L14.2333 29.0824L14.5868 29.4359ZM16.9803 27.2167L17.2914 27.6082L16.9803 27.2167ZM26.9764 21.4122L26.4764 21.4122L26.9764 21.4122ZM17.8873 26.6016L18.0999 27.0542L17.8873 26.6016ZM9.04185 26.5823L8.87066 27.0521L9.04185 26.5823ZM21.9766 1.5C24.4619 1.5 26.4766 3.51474 26.4766 6.00003L27.4766 6.00004C27.4766 2.96246 25.0141 0.5 21.9766 0.5V1.5ZM6.00048 1.5L21.9766 1.5V0.5L6.00048 0.5V1.5ZM1.50048 5.99997C1.5005 3.5147 3.51521 1.5 6.00048 1.5V0.5C2.96293 0.5 0.5005 2.96241 0.500477 5.99996L1.50048 5.99997ZM1.50036 21.4121L1.50048 5.99997L0.500477 5.99996L0.500362 21.4121L1.50036 21.4121ZM6.00036 25.9122C3.51507 25.9122 1.50034 23.8974 1.50036 21.4121L0.500362 21.4121C0.50034 24.4497 2.96278 26.9122 6.00036 26.9122L6.00036 25.9122ZM7.88259 25.9122H6.00036L6.00036 26.9122H7.88259L7.88259 25.9122ZM8.87066 27.0521C9.2174 27.1784 9.5718 27.3571 9.88768 27.6082L10.5099 26.8253C10.0912 26.4925 9.63585 26.2666 9.21305 26.1125L8.87066 27.0521ZM9.88768 27.6082C10.8116 28.3424 11.2427 28.7809 11.7775 29.3246L12.4904 28.6233C11.9436 28.0675 11.4799 27.5962 10.5099 26.8253L9.88768 27.6082ZM11.7775 29.3246C11.92 29.4694 12.071 29.6229 12.2399 29.7907L12.9446 29.0812C12.7804 28.9181 12.6332 28.7685 12.4904 28.6233L11.7775 29.3246ZM12.2399 29.7907C12.6367 30.1849 13.0668 30.5304 13.5895 30.5304C14.1123 30.5304 14.5423 30.1849 14.9392 29.7907L14.2344 29.0812C13.8335 29.4796 13.6652 29.5304 13.5895 29.5304C13.5139 29.5304 13.3456 29.4796 12.9446 29.0812L12.2399 29.7907ZM14.9404 29.7895L14.9404 29.7895L14.2333 29.0824L14.2333 29.0824L14.9404 29.7895ZM14.9392 29.7906C15.7418 28.9934 16.5193 28.2217 17.2914 27.6082L16.6692 26.8253C15.8456 27.4798 15.0275 28.2933 14.2345 29.0812L14.9392 29.7906ZM17.2914 27.6082C17.6227 27.3448 17.836 27.1781 18.0999 27.0542L17.6748 26.1491C17.2877 26.3309 16.9851 26.5742 16.6692 26.8253L17.2914 27.6082ZM21.9764 25.9122H19.0247V26.9122H21.9764V25.9122ZM26.4764 21.4122C26.4764 23.8975 24.4617 25.9122 21.9764 25.9122V26.9122C25.014 26.9122 27.4764 24.4498 27.4764 21.4122L26.4764 21.4122ZM26.4766 6.00003L26.4764 21.4122L27.4764 21.4122L27.4766 6.00004L26.4766 6.00003ZM18.0999 27.0542C18.3442 26.9395 18.6441 26.9122 19.0247 26.9122V25.9122C18.628 25.9122 18.1341 25.9333 17.6748 26.1491L18.0999 27.0542ZM7.88259 26.9122C8.25064 26.9122 8.58 26.9461 8.87066 27.0521L9.21305 26.1125C8.7643 25.949 8.30152 25.9122 7.88259 25.9122L7.88259 26.9122Z" fill="#9C9C9C"/>
<rect x="21.0527" y="21.0586" width="15.0525" height="15.0591" rx="2.73801" transform="rotate(-180 21.0527 21.0586)" fill="white"/>
<rect x="21.0527" y="21.0586" width="15.0525" height="15.0591" rx="2.73801" transform="rotate(-180 21.0527 21.0586)" fill="url(#paint0_linear_2003_2474)" fill-opacity="0.17"/>
<path d="M18.3184 9.25081V17.4648H13.6466V15.5825L8.73532 15.5825L8.73532 9.25081L18.3184 9.25081ZM17.5996 9.93531H16.3419V11.1332H17.5996V9.93531ZM17.5996 11.8177H16.3419V13.0156H17.5996V11.8177ZM17.5996 13.7001H16.3419V14.898H17.5996V13.7001ZM17.5996 15.5825H16.3419V16.7803H17.5996V15.5825ZM15.6231 9.93531H14.3654V11.1332H15.6231V9.93531ZM15.6231 11.8177H14.3654V13.0156H15.6231V11.8177ZM15.6231 13.7001H14.3654V14.898H15.6231V13.7001ZM15.6231 15.5825H14.3654V16.7803H15.6231V15.5825ZM13.6466 9.93531H9.45404L9.45404 14.898H13.6466V13.7001H12.6883V13.0156H13.6466V11.8177H12.6883V11.1332H13.6466V9.93531ZM11.4305 13.0156V13.7001H10.7118V13.0156H11.4305ZM11.4305 11.1332V11.8177H10.7118V11.1332H11.4305Z" fill="black"/>
<path d="M18 1H19.7574C22.4739 1 25.0791 2.07913 27 4V23.5L25.8212 24.4823C24.6444 25.463 23.1611 26 21.6293 26C20.2454 26 18.8971 26.4384 17.778 27.2524L14.9042 29.3424C14.3487 29.7464 13.6144 29.8072 13 29.5L18 1Z" fill="url(#paint1_linear_2003_2474)" fill-opacity="0.15"/>
<defs>
<linearGradient id="paint0_linear_2003_2474" x1="28.579" y1="21.0586" x2="28.579" y2="36.1177" gradientUnits="userSpaceOnUse">
<stop offset="0.43" stop-opacity="0"/>
<stop offset="1"/>
</linearGradient>
<linearGradient id="paint1_linear_2003_2474" x1="5.69214" y1="24.4122" x2="30.2649" y2="24.4122" gradientUnits="userSpaceOnUse">
<stop stop-color="white"/>
<stop offset="1" stop-color="white" stop-opacity="0"/>
</linearGradient>
</defs>
</svg>
