<svg width="10" height="10" viewBox="0 0 10 10" fill="none" xmlns="http://www.w3.org/2000/svg">
<path d="M9.11238 5.74228C9.07134 5.70133 9.01953 5.67286 8.96296 5.66015C8.9064 5.64745 8.84739 5.65104 8.79278 5.6705C8.0589 5.93216 7.26583 5.9802 6.50573 5.80905C5.74563 5.63791 5.0497 5.25459 4.49878 4.70365C3.94787 4.1527 3.5646 3.45675 3.39349 2.69663C3.22239 1.93652 3.27048 1.14346 3.53218 0.409597C3.55163 0.354977 3.55519 0.295964 3.54247 0.2394C3.52974 0.182835 3.50124 0.131036 3.46028 0.0900069C3.41931 0.0489779 3.36756 0.0203997 3.31101 0.00758542C3.25447 -0.00522888 3.19545 -0.00175444 3.1408 0.0176059C2.47917 0.251248 1.87874 0.631089 1.3842 1.12886C0.497657 2.01608 -0.000237025 3.21906 8.4649e-08 4.4733C0.000237194 5.72754 0.498586 6.93034 1.38547 7.81722C2.27235 8.7041 3.47514 9.20245 4.72938 9.20268C5.98362 9.20292 7.1866 8.70503 8.07382 7.81848C8.57163 7.32385 8.95148 6.72332 9.18508 6.06157C9.20436 6.00692 9.20777 5.94792 9.19491 5.89141C9.18204 5.8349 9.15343 5.78319 9.11238 5.74228Z" fill="white"/>
</svg>
