<svg width="14" height="14" viewBox="0 0 14 14" fill="none" xmlns="http://www.w3.org/2000/svg">
<path d="M7 2.97866C4.78259 2.97866 2.97866 4.78259 2.97866 7C2.97866 9.21741 4.78259 11.0213 7 11.0213C9.21741 11.0213 11.0213 9.21741 11.0213 7C11.0213 4.78259 9.21741 2.97866 7 2.97866ZM7 2.02098C7.23286 2.02098 7.4217 1.83214 7.4217 1.59928V0.421695C7.4217 0.188836 7.23286 0 7 0C6.76714 0 6.5783 0.188836 6.5783 0.421695V1.59928C6.5783 1.83214 6.76714 2.02098 7 2.02098ZM7 11.979C6.76714 11.979 6.5783 12.1679 6.5783 12.4007V13.5783C6.5783 13.8112 6.76714 14 7 14C7.23286 14 7.4217 13.8112 7.4217 13.5783V12.4007C7.4217 12.1679 7.23286 11.979 7 11.979ZM11.117 3.47927L11.9498 2.6466C12.1145 2.48199 12.1145 2.21498 11.9498 2.05026C11.785 1.88557 11.518 1.88557 11.3534 2.05026L10.5207 2.88299C10.356 3.04768 10.356 3.31461 10.5207 3.4793C10.6853 3.64402 10.9523 3.64399 11.117 3.47927ZM2.88296 10.5207L2.05023 11.3534C1.88554 11.518 1.88554 11.785 2.05023 11.9497C2.21495 12.1143 2.48199 12.1144 2.6466 11.9497L3.47927 11.117C3.64399 10.9523 3.64399 10.6854 3.47927 10.5207C3.31458 10.356 3.04765 10.356 2.88296 10.5207V10.5207ZM13.5783 6.5783H12.4007C12.1677 6.5783 11.979 6.76714 11.979 7C11.979 7.23286 12.1677 7.4217 12.4007 7.4217H13.5783C13.8112 7.4217 14 7.23286 14 7C14 6.76714 13.8112 6.5783 13.5783 6.5783ZM1.59928 6.5783H0.421695C0.188836 6.5783 0 6.76714 0 7C0 7.23286 0.188836 7.4217 0.421695 7.4217H1.59928C1.83214 7.4217 2.02098 7.23286 2.02098 7C2.02098 6.76714 1.83214 6.5783 1.59928 6.5783ZM11.117 10.5207C10.9523 10.356 10.6854 10.356 10.5207 10.5207C10.356 10.6854 10.356 10.9523 10.5207 11.117L11.3534 11.9498C11.518 12.1144 11.785 12.1145 11.9498 11.9498C12.1145 11.785 12.1145 11.518 11.9498 11.3534L11.117 10.5207ZM2.88296 3.47927C3.04765 3.64399 3.31458 3.64399 3.47927 3.47927C3.64399 3.31458 3.64399 3.04765 3.47927 2.88296L2.6466 2.05023C2.48199 1.88554 2.21498 1.88554 2.05026 2.05023C1.88557 2.21495 1.88557 2.48199 2.05026 2.6466L2.88296 3.47927Z" fill="white"/>
</svg>
