<svg width="15" height="12" viewBox="0 0 15 12" fill="none" xmlns="http://www.w3.org/2000/svg">
<path d="M7.39258 2.83846C7.6318 2.83846 7.82574 2.64452 7.82574 2.4053V0.433159C7.82574 0.19394 7.6318 0 7.39258 0C7.15336 0 6.95942 0.19394 6.95942 0.433159V2.4053C6.95942 2.64452 7.15336 2.83846 7.39258 2.83846ZM14.352 6.95942H12.3799C12.1406 6.95942 11.9467 7.15336 11.9467 7.39258C11.9467 7.6318 12.1406 7.82574 12.3799 7.82574H14.352C14.5912 7.82574 14.7852 7.6318 14.7852 7.39258C14.7852 7.15336 14.5912 6.95942 14.352 6.95942ZM2.83846 7.39258C2.83846 7.15336 2.64452 6.95942 2.4053 6.95942H0.433159C0.19394 6.95942 0 7.15336 0 7.39258C0 7.6318 0.19394 7.82574 0.433159 7.82574H2.4053C2.64452 7.82574 2.83846 7.6318 2.83846 7.39258ZM11.4332 3.8092C11.544 3.8092 11.6549 3.76689 11.7395 3.68231L12.8037 2.61813C12.9728 2.44899 12.9728 2.17472 12.8037 2.00555C12.6346 1.83639 12.3603 1.83639 12.1911 2.00555L11.1269 3.06974C10.9577 3.23887 10.9577 3.51315 11.1269 3.68231C11.1671 3.7226 11.2148 3.75455 11.2674 3.77632C11.32 3.7981 11.3763 3.80927 11.4332 3.8092ZM3.04566 3.68231C3.13024 3.76689 3.2411 3.8092 3.35193 3.8092C3.46276 3.8092 3.57365 3.76692 3.6582 3.68231C3.82736 3.51315 3.82736 3.2389 3.6582 3.06974L2.59399 2.00555C2.42485 1.83639 2.15058 1.83639 1.98141 2.00555C1.81225 2.17472 1.81225 2.44896 1.98141 2.61813L3.04566 3.68231Z" fill="white"/>
<path d="M12.7388 8.83723H10.8419C11.0327 8.3829 11.1322 7.89378 11.1322 7.39195C11.1322 5.32994 9.45461 3.65234 7.3926 3.65234C5.33059 3.65234 3.653 5.32991 3.653 7.39195C3.653 7.89381 3.75251 8.38293 3.94324 8.83723H2.04644C1.80722 8.83723 1.61328 9.03117 1.61328 9.27039C1.61328 9.5096 1.80722 9.70354 2.04644 9.70354H12.7387C12.978 9.70354 13.1719 9.5096 13.1719 9.27039C13.1719 9.03117 12.978 8.83723 12.7388 8.83723ZM10.1137 10.5284H4.6715C4.43228 10.5284 4.23834 10.7224 4.23834 10.9616C4.23834 11.2008 4.43228 11.3947 4.6715 11.3947H10.1137C10.3529 11.3947 10.5469 11.2008 10.5469 10.9616C10.5469 10.7224 10.3529 10.5284 10.1137 10.5284Z" fill="white"/>
</svg>
