<svg width="20" height="21" viewBox="0 0 20 21" fill="none" xmlns="http://www.w3.org/2000/svg">
<path d="M19.6094 9.94412C19.2836 4.38579 14.2332 0.102046 8.41611 1.06038C4.41028 1.72163 1.19987 4.97036 0.57695 8.97619C0.212784 11.2954 0.691971 13.4899 1.73655 15.3012L0.883624 18.4733C0.691957 19.192 1.35319 19.8437 2.06236 19.6424L5.18653 18.78C6.60486 19.6137 8.26278 20.0929 10.0357 20.0929C15.4407 20.0929 19.9257 15.33 19.6094 9.94412ZM14.722 14.0745C14.6357 14.247 14.5303 14.41 14.3961 14.5633C14.1565 14.822 13.8978 15.0137 13.6103 15.1287C13.3228 15.2533 13.0065 15.3108 12.6711 15.3108C12.1824 15.3108 11.6553 15.1958 11.109 14.9562C10.5532 14.7166 10.007 14.4004 9.46072 14.0074C8.90489 13.6049 8.38737 13.1545 7.88904 12.6658C7.39071 12.1674 6.94985 11.6404 6.54735 11.0941C6.15443 10.5479 5.8382 10.0016 5.6082 9.45536C5.3782 8.90911 5.26321 8.38204 5.26321 7.88371C5.26321 7.55787 5.32071 7.24162 5.43571 6.95412C5.55071 6.65704 5.73281 6.38871 5.99156 6.14913C6.29822 5.84246 6.63362 5.69871 6.9882 5.69871C7.12237 5.69871 7.25651 5.72746 7.38109 5.78496C7.50568 5.84246 7.6207 5.9287 7.70695 6.05329L8.81859 7.62494C8.90484 7.74952 8.97194 7.85494 9.01027 7.96036C9.05819 8.06578 9.07736 8.16161 9.07736 8.25744C9.07736 8.37244 9.03904 8.48746 8.97196 8.60246C8.90488 8.71746 8.8186 8.83244 8.7036 8.94744L8.33943 9.33077C8.28193 9.38827 8.2628 9.44578 8.2628 9.52245C8.2628 9.56078 8.27235 9.59911 8.28193 9.63744C8.3011 9.67578 8.31072 9.70453 8.3203 9.73328C8.40655 9.8962 8.55986 10.0974 8.77069 10.3466C8.99111 10.5958 9.22115 10.8545 9.47031 11.1037C9.72906 11.3624 9.97822 11.5924 10.237 11.8129C10.4861 12.0237 10.6969 12.1675 10.8598 12.2537C10.8886 12.2633 10.9174 12.2824 10.9461 12.292C10.9845 12.3112 11.0228 12.3112 11.0707 12.3112C11.157 12.3112 11.2145 12.2825 11.272 12.225L11.6361 11.8608C11.7607 11.7362 11.8757 11.65 11.9811 11.5925C12.0961 11.5254 12.2015 11.487 12.3261 11.487C12.422 11.487 12.5178 11.5062 12.6232 11.5541C12.7286 11.602 12.8436 11.6595 12.9586 11.7458L14.5495 12.8766C14.6741 12.9629 14.7603 13.0683 14.8178 13.1833C14.8657 13.3079 14.8945 13.4229 14.8945 13.557C14.837 13.7199 14.7986 13.902 14.722 14.0745Z" fill="white"/>
</svg>
