<svg width="23" height="23" viewBox="0 0 23 23" fill="none" xmlns="http://www.w3.org/2000/svg">
<path d="M10.7238 17.25H12.4488V10.35H10.7238V17.25ZM11.4995 8.2225C11.7682 8.2225 11.9935 8.13433 12.1756 7.958C12.3577 7.78167 12.4488 7.56317 12.4488 7.3025C12.4488 7.02554 12.3579 6.79339 12.1761 6.60603C11.9944 6.41868 11.7692 6.325 11.5005 6.325C11.2318 6.325 11.0065 6.41868 10.8244 6.60603C10.6423 6.79339 10.5513 7.02554 10.5513 7.3025C10.5513 7.56317 10.6421 7.78167 10.8239 7.958C11.0056 8.13433 11.2308 8.2225 11.4995 8.2225ZM11.5076 23C9.92191 23 8.4317 22.6981 7.03702 22.0944C5.64234 21.4906 4.42271 20.6665 3.37813 19.6219C2.33354 18.5773 1.50938 17.3569 0.905625 15.9608C0.301875 14.5647 0 13.073 0 11.4856C0 9.89826 0.301875 8.40653 0.905625 7.01043C1.50938 5.61431 2.33354 4.39875 3.37813 3.36375C4.42271 2.32875 5.64306 1.50938 7.03918 0.905625C8.43528 0.301875 9.92701 0 11.5144 0C13.1017 0 14.5935 0.301875 15.9896 0.905625C17.3857 1.50938 18.6013 2.32875 19.6363 3.36375C20.6713 4.39875 21.4906 5.61583 22.0944 7.015C22.6981 8.41417 23 9.90662 23 11.4924C23 13.0781 22.6981 14.5683 22.0944 15.963C21.4906 17.3577 20.6713 18.5755 19.6363 19.6166C18.6013 20.6576 17.3842 21.4818 15.985 22.0891C14.5858 22.6964 13.0934 23 11.5076 23ZM11.5144 21.275C14.2265 21.275 16.5313 20.3215 18.4288 18.4144C20.3263 16.5073 21.275 14.1977 21.275 11.4856C21.275 8.77354 20.3281 6.46875 18.4342 4.57125C16.5402 2.67375 14.2289 1.725 11.5 1.725C8.7975 1.725 6.49271 2.67195 4.58563 4.56585C2.67854 6.45976 1.725 8.77115 1.725 11.5C1.725 14.2025 2.67854 16.5073 4.58563 18.4144C6.49271 20.3215 8.80229 21.275 11.5144 21.275Z" fill="white"/>
</svg>
