<svg width="23" height="21" viewBox="0 0 23 21" fill="none" xmlns="http://www.w3.org/2000/svg">
<path d="M18.8932 0C19.4602 0 20.2701 0.201673 20.9354 0.886911C21.3349 1.29849 23 2.84933 23 5.57581C23 8.41838 20.9376 10.8712 20.6883 11.1863L20.6866 11.188C20.7102 11.1582 20.3701 11.6291 19.916 12.1938C19.4619 12.7584 18.827 13.5 18.0293 14.3029C16.4339 15.9086 14.1909 17.7643 11.4069 18.8993C10.1248 19.4212 9.11336 19.7363 8.34706 19.9662C6.92692 20.3925 5.63344 20.3277 4.66179 20.1908C3.93451 20.0884 3.13461 19.7546 2.34317 19.2758C1.55173 18.7971 0.776074 18.2017 0.43402 17.2972C0.18898 16.6488 0.0644106 16.0495 0.0193622 15.5564C-0.00315974 15.3099 -0.00602423 15.0923 0.0107213 14.8908C0.0275022 14.6894 0.00957125 14.5351 0.205955 14.2269C0.617799 13.5805 1.08421 13.5636 1.57087 13.3334C1.84127 13.2055 2.61112 12.8461 3.38327 12.4944C4.15455 12.143 4.82239 11.8319 5.23367 11.6917C5.49352 11.6023 5.81081 11.4737 6.26859 11.5232C6.72636 11.5728 7.17849 11.8885 7.44172 12.2615C7.69123 12.615 8.69565 13.7484 9.00187 14.0816C9.00594 14.0792 8.97936 14.0909 9.10035 14.0337C9.47907 13.8545 9.94226 13.7021 10.6277 13.3565C11.3131 13.0109 12.1705 12.5005 13.1087 11.7099C14.5051 10.5347 15.4833 9.05753 15.7919 8.56191C15.7711 8.53826 15.7944 8.5669 15.7504 8.52557L15.7487 8.52392C15.4333 8.22698 15.1538 7.87232 14.9176 7.61223C14.5828 7.24347 14.435 6.91839 14.2749 6.61467C13.9559 6.00935 14.1335 5.34326 14.3181 4.99279C14.3054 5.01704 14.418 4.77789 14.5393 4.50392C14.6609 4.22917 14.816 3.87297 14.9816 3.49314C15.3128 2.73347 15.6826 1.88143 15.9025 1.38239C16.1615 0.794577 16.512 0.369458 16.9702 0.16516C17.4284 -0.0391377 17.8332 0.0189447 17.8496 0.0181685C18.1766 0.00374895 18.5372 0 18.8932 0ZM18.8932 1.69124C18.5521 1.69124 18.2159 1.69522 17.9343 1.70776C17.6446 1.72156 17.6626 1.72269 17.7183 1.69785C17.7749 1.67261 17.6981 1.66442 17.5334 2.03808C17.3181 2.52672 16.9465 3.38185 16.6143 4.14387C16.4482 4.52488 16.2927 4.88246 16.1685 5.16291C16.0444 5.44336 15.9771 5.59995 15.899 5.74923L15.8973 5.75253C15.8207 5.89692 15.8275 5.80448 15.8541 5.85493C16.0408 6.2091 16.0661 6.29606 16.2549 6.50401C16.5424 6.82064 16.8357 7.17374 16.9909 7.3199C17.1267 7.44744 17.3718 7.64613 17.5248 8.03504C17.678 8.42456 17.6065 8.95898 17.3607 9.35798C17.0333 9.88919 15.9547 11.5675 14.2784 12.9783C13.2227 13.8679 12.2392 14.4567 11.4535 14.8529C10.6679 15.249 10.0279 15.4804 9.88474 15.5482C9.54472 15.709 9.1731 15.834 8.74098 15.7844C8.30886 15.7348 7.93631 15.4841 7.69915 15.2278L7.69743 15.2261C7.3818 14.8841 6.44393 13.8603 5.99388 13.2293C5.9748 13.2358 5.98105 13.2308 5.83147 13.2822L5.82974 13.2838C5.76145 13.3071 4.9061 13.6731 4.14347 14.0204C3.38084 14.3678 2.60678 14.7289 2.35526 14.8479C1.99228 15.0196 1.82077 15.1314 1.77647 15.132C1.77348 15.2064 1.77045 15.287 1.78165 15.4094C1.81267 15.7491 1.90765 16.2192 2.09783 16.7225C2.191 16.9688 2.67626 17.477 3.28824 17.8472C3.90022 18.2174 4.6451 18.4789 4.92095 18.5178C5.75036 18.6346 6.73512 18.6772 7.81664 18.3526C8.56654 18.1276 9.50159 17.8363 10.7123 17.3435C13.1678 16.3424 15.2548 14.639 16.7456 13.1385C17.491 12.3883 18.0882 11.6899 18.5131 11.1615C18.9371 10.6342 19.1223 10.3597 19.2767 10.1656L19.2785 10.164C19.5525 9.81749 21.2308 7.58593 21.2308 5.57581C21.2308 3.44843 20.1971 2.61418 19.6378 2.03808C19.3442 1.73563 19.0232 1.69124 18.8932 1.69124Z" fill="white"/>
</svg>
