<svg width="23" height="23" viewBox="0 0 23 23" fill="none" xmlns="http://www.w3.org/2000/svg">
<path fill-rule="evenodd" clip-rule="evenodd" d="M18.4618 6.74442C18.6038 6.8908 18.6481 7.10614 18.5755 7.29669L14.1855 18.8205C14.1221 18.9869 13.9788 19.1098 13.8047 19.147C13.6307 19.1842 13.4496 19.1307 13.3238 19.0048L8.47261 14.1537L3.65137 12.5466C3.43808 12.4755 3.29376 12.2765 3.29247 12.0516C3.29117 11.8268 3.4332 11.6261 3.64566 11.5526L17.9133 6.61381C18.106 6.54711 18.3199 6.59803 18.4618 6.74442ZM9.56794 13.7644L13.493 17.6894L16.9819 8.53098L9.56794 13.7644ZM14.7548 8.81804L5.4491 12.0392L8.67031 13.113L14.7548 8.81804Z" fill="white"/>
<path fill-rule="evenodd" clip-rule="evenodd" d="M0 11.5C0 5.14856 5.14856 0 11.5 0C17.8514 0 23 5.14856 23 11.5C23 17.8514 17.8514 23 11.5 23C5.14856 23 0 17.8514 0 11.5ZM11.5 1.0498C5.72835 1.0498 1.0498 5.72835 1.0498 11.5C1.0498 17.2717 5.72835 21.9502 11.5 21.9502C17.2717 21.9502 21.9502 17.2717 21.9502 11.5C21.9502 5.72835 17.2717 1.0498 11.5 1.0498Z" fill="white"/>
</svg>
