<svg width="23" height="23" viewBox="0 0 23 23" fill="none" xmlns="http://www.w3.org/2000/svg">
<path d="M11.5 0C5.15477 0 0 5.15477 0 11.5C0 13.5395 0.559344 15.4429 1.49219 17.1045L0.0185547 22.3652C-0.00498797 22.4494 -0.00605171 22.5383 0.0154696 22.623C0.0369908 22.7077 0.0803452 22.7853 0.14121 22.8481C0.202075 22.9108 0.278323 22.9565 0.362353 22.9806C0.446383 23.0047 0.535258 23.0063 0.620117 22.9854L6.10547 21.626C7.71731 22.4865 9.5463 23 11.5 23C17.8452 23 23 17.8452 23 11.5C23 5.15477 17.8452 0 11.5 0ZM11.5 1C17.3048 1 22 5.69523 22 11.5C22 17.3048 17.3048 22 11.5 22C9.63901 22 7.89606 21.5148 6.38086 20.667C6.27004 20.6051 6.13982 20.5876 6.0166 20.6182L1.21289 21.8086L2.50098 17.2129C2.51941 17.1479 2.5245 17.0799 2.51594 17.013C2.50738 16.946 2.48535 16.8815 2.45117 16.8232C1.53034 15.2618 1 13.4451 1 11.5C1 5.69523 5.69523 1 11.5 1ZM7.32129 5.5C7.00077 5.5 6.54302 5.61925 6.16699 6.02441C5.94113 6.26777 5 7.18476 5 8.79688C5 10.4776 6.1657 11.9279 6.30664 12.1143H6.30762V12.1152C6.29425 12.0977 6.48652 12.3761 6.74316 12.71C6.99981 13.0438 7.3587 13.4823 7.80957 13.957C8.71131 14.9065 9.97914 16.0037 11.5527 16.6748C12.2774 16.9834 12.8491 17.1697 13.2822 17.3057C14.0849 17.5577 14.816 17.5194 15.3652 17.4385C15.7763 17.3779 16.2284 17.1806 16.6758 16.8975C17.1231 16.6144 17.5615 16.2624 17.7549 15.7275C17.8934 15.3441 17.9638 14.9898 17.9893 14.6982C18.002 14.5525 18.0036 14.4238 17.9941 14.3047C17.9847 14.1856 17.9948 14.0943 17.8838 13.9121C17.651 13.5299 17.3874 13.5199 17.1123 13.3838C16.9595 13.3081 16.5243 13.0957 16.0879 12.8877C15.6519 12.68 15.2745 12.496 15.042 12.4131C14.8951 12.3602 14.7158 12.2842 14.457 12.3135C14.1983 12.3428 13.9427 12.5295 13.7939 12.75C13.6529 12.959 13.0852 13.6292 12.9121 13.8262C12.9098 13.8248 12.9248 13.8317 12.8564 13.7979C12.6424 13.6919 12.3806 13.6018 11.9932 13.3975C11.6058 13.1931 11.1211 12.8913 10.5908 12.4238V12.4229C9.80151 11.728 9.24864 10.8556 9.07422 10.5625C9.08597 10.5485 9.07282 10.5655 9.09766 10.541L9.09863 10.54C9.27689 10.3645 9.43487 10.1548 9.56836 10.001C9.75763 9.78293 9.84116 9.59072 9.93164 9.41113C10.112 9.05322 10.0116 8.65937 9.90723 8.45215V8.45117C9.91443 8.46551 9.85079 8.32508 9.78223 8.16309C9.71347 8.00063 9.62583 7.79002 9.53223 7.56543C9.34502 7.11625 9.13601 6.61246 9.01172 6.31738V6.31641C8.8653 5.96884 8.6672 5.71845 8.4082 5.59766C8.14921 5.47686 7.92039 5.5112 7.91113 5.51074H7.91016C7.72533 5.50222 7.52252 5.5 7.32129 5.5ZM7.32129 6.5C7.51406 6.5 7.70411 6.50235 7.86328 6.50977C8.02703 6.51793 8.01684 6.5186 7.98535 6.50391C7.95336 6.48899 7.99677 6.48414 8.08984 6.70508C8.21155 6.99401 8.42158 7.49962 8.60938 7.9502C8.70327 8.17548 8.79115 8.38691 8.86133 8.55273C8.93151 8.71856 8.96954 8.81115 9.01367 8.89941V8.90039L9.01465 8.90137C9.05792 8.98674 9.05409 8.93208 9.03906 8.96191C8.93355 9.17133 8.91923 9.22275 8.8125 9.3457C8.64999 9.53292 8.48423 9.7417 8.39648 9.82812C8.31972 9.90354 8.18121 10.021 8.09473 10.251C8.00811 10.4813 8.04854 10.7973 8.1875 11.0332C8.37252 11.3473 8.9822 12.3397 9.92969 13.1738C10.5264 13.6998 11.0823 14.048 11.5264 14.2822C11.9705 14.5165 12.3322 14.6533 12.4131 14.6934C12.6053 14.7885 12.8153 14.8623 13.0596 14.833C13.3038 14.8037 13.5144 14.6555 13.6484 14.5039L13.6494 14.5029C13.8278 14.3007 14.3579 13.6954 14.6123 13.3223C14.6231 13.3261 14.6196 13.3231 14.7041 13.3535V13.3545H14.7051C14.7437 13.3682 15.2271 13.5846 15.6582 13.79C16.0893 13.9954 16.5268 14.2089 16.6689 14.2793C16.8741 14.3808 16.9711 14.4469 16.9961 14.4473C16.9978 14.4913 16.9995 14.5389 16.9932 14.6113C16.9756 14.8121 16.922 15.0901 16.8145 15.3877C16.7618 15.5334 16.4875 15.8338 16.1416 16.0527C15.7957 16.2716 15.3747 16.4263 15.2188 16.4492C14.7499 16.5183 14.1933 16.5435 13.582 16.3516C13.1582 16.2185 12.6297 16.0463 11.9453 15.7549C10.5574 15.163 9.3778 14.1558 8.53516 13.2686C8.11384 12.825 7.77628 12.412 7.53613 12.0996C7.29643 11.7878 7.19176 11.6255 7.10449 11.5107L7.10352 11.5098C6.9486 11.3049 6 9.98543 6 8.79688C6 7.53899 6.58425 7.04572 6.90039 6.70508C7.06636 6.52625 7.24781 6.5 7.32129 6.5Z" fill="white"/>
</svg>
