<svg width="136" height="92" viewBox="0 0 136 92" fill="none" xmlns="http://www.w3.org/2000/svg">
<path d="M96.295 66.8461C97.7906 66.8461 99.2862 66.8461 100.827 66.8461C100.8 66.9413 100.773 67.0365 100.745 67.1345C100.681 67.6866 100.902 68.1429 101.157 68.6178C101.181 68.6634 101.181 68.6634 101.206 68.7099C101.499 69.2538 101.81 69.7844 102.135 70.3096C102.287 70.5561 102.436 70.8047 102.583 71.0538C102.617 71.1099 102.617 71.1099 102.651 71.167C102.804 71.4267 102.95 71.6896 103.093 71.9551C103.121 72.006 103.121 72.006 103.149 72.058C103.662 73.0041 104.045 73.9549 104.288 75.0041C104.314 74.9286 104.34 74.853 104.365 74.7775C104.38 74.7354 104.394 74.6933 104.409 74.65C104.441 74.5486 104.468 74.4502 104.493 74.3471C104.733 73.3676 105.356 72.4467 105.881 71.597C106.002 71.4004 106.108 71.1997 106.209 70.992C106.353 70.6979 106.516 70.419 106.687 70.1397C106.876 69.8291 107.055 69.5136 107.232 69.1963C107.335 69.0123 107.44 68.8302 107.55 68.6505C107.829 68.189 108.07 67.6378 107.955 67.0933C107.916 66.9732 107.916 66.9732 107.873 66.8873C107.914 66.8461 107.914 66.8461 107.99 66.841C108.041 66.8411 108.041 66.8411 108.092 66.8411C108.15 66.8411 108.15 66.8411 108.209 66.841C108.252 66.8411 108.294 66.8413 108.338 66.8414C108.383 66.8414 108.428 66.8414 108.474 66.8414C108.622 66.8414 108.77 66.8418 108.918 66.8421C109.021 66.8422 109.123 66.8422 109.226 66.8423C109.468 66.8424 109.711 66.8427 109.954 66.8431C110.257 66.8436 110.56 66.8439 110.864 66.8441C111.405 66.8445 111.946 66.8452 112.487 66.8461C112.454 67.016 112.392 67.0673 112.256 67.1757C111.625 67.7286 111.434 68.6386 111.375 69.4418C111.361 69.8698 111.394 70.2926 111.43 70.7186C111.436 70.7918 111.441 70.8649 111.447 70.9381C111.463 71.1354 111.479 71.3326 111.496 71.5299C111.509 71.6953 111.523 71.8607 111.536 72.0262C111.568 72.417 111.6 72.8078 111.632 73.1985C111.665 73.5998 111.698 74.0011 111.73 74.4024C111.758 74.7486 111.787 75.0948 111.815 75.4409C111.832 75.6469 111.849 75.8529 111.865 76.059C111.881 76.253 111.897 76.447 111.913 76.641C111.919 76.7116 111.925 76.7822 111.93 76.8528C111.98 77.4697 112.045 78.0923 112.235 78.6839C112.246 78.7183 112.257 78.7526 112.268 78.788C112.299 78.8866 112.331 78.9848 112.364 79.0831C112.38 79.1338 112.396 79.1845 112.412 79.2368C112.546 79.6248 112.77 79.9139 113.034 80.2226C113.105 80.3191 113.105 80.3191 113.105 80.4427C111.596 80.4427 110.087 80.4427 108.532 80.4427C108.572 80.2805 108.612 80.2149 108.71 80.0848C109.128 79.4981 109.211 78.8162 109.175 78.1119C109.173 78.0549 109.173 78.0549 109.17 77.9967C109.149 77.5907 109.117 77.1857 109.084 76.7804C109.078 76.7012 109.072 76.622 109.065 76.5428C109.049 76.3369 109.032 76.1309 109.016 75.9249C108.989 75.5951 108.963 75.2653 108.937 74.9354C108.928 74.8219 108.918 74.7084 108.909 74.5949C108.882 74.2542 108.856 73.9134 108.837 73.5721C108.835 73.5282 108.835 73.5282 108.832 73.4835C108.801 72.8962 108.827 72.3125 108.862 71.7259C108.866 71.6557 108.87 71.5854 108.873 71.5152C108.883 71.3459 108.893 71.1767 108.903 71.0075C108.888 71.0456 108.888 71.0456 108.873 71.0844C108.671 71.6117 108.455 72.1288 108.21 72.6375C108.188 72.6838 108.166 72.73 108.143 72.7776C108.037 72.9955 107.926 73.2046 107.794 73.408C107.727 73.5151 107.674 73.628 107.62 73.7423C107.46 74.0716 107.267 74.3787 107.074 74.6896C106.732 75.2449 106.399 75.8063 106.077 76.3738C105.927 76.6381 105.774 76.9004 105.619 77.162C105.597 77.2001 105.574 77.2383 105.551 77.2776C105.453 77.443 105.355 77.6079 105.253 77.771C104.865 78.3966 104.563 79.0676 104.469 79.8033C104.453 79.9071 104.453 79.9071 104.412 79.9483C104.343 79.95 104.274 79.9501 104.206 79.9483C104.192 79.8974 104.178 79.8465 104.163 79.7941C103.92 78.9336 103.55 78.1806 103.065 77.4308C102.97 77.2832 102.88 77.1374 102.804 76.9792C102.717 76.7996 102.608 76.6387 102.496 76.4745C102.117 75.9138 101.759 75.3399 101.409 74.7614C101.311 74.6008 101.212 74.4409 101.114 74.2811C100.465 73.2308 99.8732 72.1796 99.5911 70.9663C99.5936 71.0153 99.5961 71.0642 99.5987 71.1147C99.6081 71.2996 99.6172 71.4845 99.6263 71.6694C99.6303 71.7488 99.6343 71.8283 99.6383 71.9077C99.6442 72.0231 99.6499 72.1385 99.6555 72.2538C99.6573 72.2883 99.6591 72.3227 99.661 72.3582C99.6889 72.945 99.6697 73.5279 99.6389 74.1139C99.6353 74.185 99.6317 74.2561 99.6281 74.3271C99.6187 74.5126 99.6092 74.6981 99.5995 74.8836C99.5899 75.0703 99.5804 75.2571 99.5709 75.4439C99.5569 75.7196 99.5428 75.9954 99.5285 76.2712C99.5269 76.3024 99.5253 76.3336 99.5236 76.3657C99.5151 76.5311 99.5064 76.6965 99.4974 76.8619C99.4955 76.8966 99.4937 76.9314 99.4917 76.9672C99.4882 77.0331 99.4846 77.0989 99.481 77.1647C99.4636 77.489 99.4558 77.8132 99.4546 78.138C99.4545 78.1681 99.4544 78.1983 99.4543 78.2293C99.4538 78.6974 99.4912 79.1293 99.6323 79.5775C99.6417 79.6149 99.651 79.6523 99.6607 79.6908C99.7208 79.9134 99.8354 80.0654 99.9856 80.239C100.044 80.3191 100.044 80.3191 100.044 80.4427C98.5895 80.4427 97.1347 80.4427 95.6357 80.4427C95.6781 80.2734 95.7168 80.2171 95.8263 80.0874C95.9411 79.947 96.0542 79.8065 96.1611 79.6599C96.1829 79.6301 96.2048 79.6004 96.2274 79.5698C96.4049 79.2655 96.5 78.9274 96.5885 78.5886C96.5989 78.5515 96.6092 78.5144 96.6199 78.4761C96.683 78.2368 96.722 77.9984 96.7483 77.7524C96.7518 77.72 96.7553 77.6876 96.759 77.6543C96.7953 77.311 96.8206 76.9672 96.8441 76.6228C96.849 76.5534 96.8539 76.4839 96.8588 76.4144C96.8719 76.2281 96.8848 76.0417 96.8976 75.8553C96.9057 75.7382 96.9138 75.6211 96.9219 75.504C96.9504 75.0936 96.9787 74.6831 97.0069 74.2726C97.0329 73.8931 97.0593 73.5136 97.0859 73.1341C97.1089 72.8057 97.1316 72.4773 97.1542 72.1488C97.1675 71.9538 97.181 71.7588 97.1948 71.5638C97.4178 69.2345 97.4178 69.2345 96.5113 67.1525C96.4207 67.0466 96.4207 67.0466 96.295 66.9697C96.295 66.9289 96.295 66.8881 96.295 66.8461ZM108.944 70.7603C108.985 70.8427 108.985 70.8427 108.985 70.8427L108.944 70.7603Z" fill="white"/>
<path d="M92.1333 68.1233C92.1904 68.1734 92.1904 68.1734 92.2485 68.2246C92.3485 68.3134 92.4471 68.4034 92.5453 68.4941C92.5832 68.5279 92.5832 68.5279 92.6218 68.5624C93.7996 69.662 94.3057 71.5459 94.3627 73.1086C94.3895 74.1804 94.3114 75.3181 93.905 76.3225C93.8922 76.3542 93.8795 76.3859 93.8663 76.4185C93.6874 76.8594 93.4981 77.2782 93.2458 77.6822C93.2199 77.7286 93.194 77.7751 93.1674 77.823C92.3939 79.1816 90.8552 80.1542 89.3805 80.5663C87.8025 80.9875 86.1107 80.987 84.5522 80.4839C84.5221 80.4744 84.4921 80.4649 84.4612 80.4551C83.9928 80.3038 83.5728 80.0765 83.1513 79.8247C83.1242 79.8085 83.097 79.7924 83.0691 79.7758C82.3471 79.3424 81.7778 78.7402 81.2972 78.053C81.2516 77.9885 81.2516 77.9885 81.205 77.9228C80.7326 77.235 80.4279 76.4409 80.2826 75.6221C80.2739 75.5735 80.2652 75.525 80.2562 75.4749C79.8893 73.3742 80.102 71.0852 81.3271 69.2909C82.439 67.7198 83.9986 66.8905 85.8695 66.5661C88.0819 66.2026 90.4291 66.6193 92.1333 68.1233ZM84.2406 69.8461C83.1707 71.1129 82.9766 72.8705 83.1101 74.4684C83.2243 75.6057 83.5713 76.6726 84.305 77.5586C84.3429 77.6045 84.3429 77.6045 84.3816 77.6513C85.0273 78.3598 86.0378 78.6615 86.9625 78.7483C88.0657 78.7958 89.1224 78.434 89.9433 77.6868C90.0741 77.5584 90.1766 77.4216 90.2792 77.2702C90.2946 77.2481 90.3099 77.226 90.3258 77.2033C91.3658 75.7089 91.5628 73.952 91.2613 72.1804C91.1419 71.5406 90.9139 70.9013 90.5676 70.3482C90.5454 70.3122 90.5232 70.2761 90.5004 70.239C90.4155 70.1045 90.4155 70.1045 90.3204 69.9774C90.2932 69.9774 90.266 69.9774 90.238 69.9774C90.224 69.9443 90.224 69.9443 90.2097 69.9105C89.8515 69.2624 89.0253 68.8872 88.346 68.6804C86.8597 68.2663 85.2773 68.699 84.2406 69.8461Z" fill="white"/>
<path d="M65.5171 66.8461C67.0943 66.8461 68.6715 66.8461 70.2965 66.8461C70.248 67.0401 70.1886 67.0776 70.0493 67.2169C69.4097 68.037 69.2988 69.0651 69.2906 70.0688C69.2899 70.1224 69.2891 70.176 69.2884 70.2313C69.2858 70.4282 69.2839 70.6251 69.2819 70.8221C69.2743 71.4849 69.2743 71.4849 69.2665 72.1611C70.9524 72.1611 72.6384 72.1611 74.3755 72.1611C74.3712 71.7167 74.367 71.2722 74.3626 70.8143C74.3611 70.6067 74.3611 70.6067 74.3595 70.395C74.3504 69.5254 74.3206 68.6967 74.0047 67.8761C73.992 67.8382 73.9794 67.8003 73.9664 67.7612C73.8565 67.4472 73.6662 67.156 73.3867 66.9697C73.3867 66.9289 73.3867 66.8881 73.3867 66.8461C74.9639 66.8461 76.5411 66.8461 78.1661 66.8461C78.124 67.0143 78.1191 67.0278 77.9987 67.1293C77.6938 67.4243 77.5141 67.8258 77.3678 68.2186C77.358 68.2439 77.3481 68.2692 77.338 68.2952C77.1343 68.8806 77.1652 69.5446 77.1666 70.1554C77.1664 70.2413 77.1663 70.3272 77.1661 70.4131C77.1658 70.6443 77.1659 70.8755 77.1662 71.1067C77.1664 71.3499 77.1662 71.5931 77.166 71.8363C77.1659 72.2444 77.1661 72.6526 77.1665 73.0607C77.1669 73.5311 77.1668 74.0015 77.1663 74.4719C77.166 74.8775 77.1659 75.283 77.1661 75.6885C77.1662 75.93 77.1663 76.1715 77.166 76.413C77.1658 76.6401 77.1659 76.8672 77.1664 77.0943C77.1665 77.1771 77.1665 77.26 77.1663 77.3428C77.1651 77.9445 77.1653 78.56 77.3678 79.1345C77.3784 79.1654 77.389 79.1962 77.4 79.2279C77.5486 79.636 77.7824 79.9633 78.1056 80.2523C78.1661 80.3191 78.1661 80.3191 78.1661 80.4427C76.5889 80.4427 75.0117 80.4427 73.3867 80.4427C73.4288 80.2739 73.4381 80.2562 73.5592 80.1517C74.1188 79.6104 74.3234 78.5802 74.3408 77.8282C74.3417 77.761 74.3423 77.6937 74.3428 77.6264C74.3432 77.5888 74.3436 77.5512 74.344 77.5124C74.3453 77.3917 74.3463 77.2711 74.3473 77.1504C74.3481 77.0755 74.3489 77.0005 74.3497 76.9256C74.3525 76.649 74.3549 76.3725 74.3575 76.0959C74.3634 75.4772 74.3694 74.8586 74.3755 74.2212C72.6895 74.2212 71.0035 74.2212 69.2665 74.2212C69.2707 74.8161 69.275 75.4109 69.2793 76.0238C69.2804 76.2099 69.2814 76.396 69.2824 76.5877C69.284 76.7582 69.284 76.7582 69.2856 76.9287C69.2863 77.0031 69.2867 77.0776 69.2869 77.1521C69.2905 78.1538 69.3698 79.2355 70.0332 80.0355C70.0905 80.1131 70.0905 80.1131 70.0905 80.1955C70.13 80.2108 70.13 80.2108 70.1703 80.2264C70.2553 80.2779 70.2553 80.2779 70.2965 80.4427C68.7193 80.4427 67.1421 80.4427 65.5171 80.4427C65.5594 80.2736 65.563 80.2624 65.6845 80.162C66.3436 79.5259 66.4971 78.4016 66.5199 77.5337C66.5224 77.3532 66.5221 77.1727 66.5213 76.9921C66.5214 76.9107 66.5215 76.8293 66.5217 76.7479C66.5221 76.5297 66.5217 76.3116 66.5212 76.0934C66.5207 75.8635 66.5209 75.6336 66.521 75.4037C66.521 75.018 66.5205 74.6324 66.5198 74.2467C66.5189 73.8026 66.5188 73.3584 66.519 72.9143C66.5193 72.4845 66.519 72.0548 66.5186 71.625C66.5184 71.4432 66.5183 71.2614 66.5184 71.0796C66.5185 70.8652 66.5182 70.6507 66.5175 70.4363C66.5173 70.3582 66.5173 70.2801 66.5174 70.202C66.5187 69.2065 66.4578 67.9409 65.7263 67.1752C65.6757 67.1288 65.6251 67.0825 65.5744 67.0361C65.5171 66.9697 65.5171 66.9697 65.5171 66.8461Z" fill="white"/>
<path d="M26.2105 66.8461C27.9372 66.8461 29.664 66.8461 31.4431 66.8461C31.4047 66.9995 31.376 67.0565 31.286 67.1783C30.97 67.6387 30.8883 68.158 30.9873 68.7002C31.0812 69.1048 31.2321 69.4898 31.3763 69.8787C31.5055 70.228 31.632 70.5783 31.7589 70.9285C31.8054 71.0567 31.8521 71.1848 31.8988 71.3128C32.0291 71.6714 32.1564 72.0288 32.2651 72.3946C32.3553 72.6809 32.4615 72.9619 32.5649 73.2436C32.608 73.3612 32.651 73.4789 32.6939 73.5965C32.8155 73.9297 32.9375 74.2626 33.0595 74.5956C33.134 74.7992 33.2085 75.0029 33.2828 75.2066C33.3243 75.3201 33.366 75.4336 33.4077 75.5471C33.534 75.8921 33.6545 76.2374 33.7619 76.5888C34.1535 77.8657 34.7698 79.2844 35.7592 80.2204C35.8517 80.3191 35.8517 80.3191 35.8517 80.4427C34.3833 80.4427 32.9148 80.4427 31.4019 80.4427C31.4345 80.3125 31.4649 80.2261 31.5255 80.1105C31.7859 79.6117 31.667 78.9492 31.5122 78.4282C31.454 78.2469 31.3877 78.0685 31.3167 77.8918C31.2692 77.7735 31.2371 77.6875 31.2371 77.5586C29.5919 77.5586 27.9467 77.5586 26.2517 77.5586C26.2381 77.6265 26.2245 77.6945 26.2105 77.7646C26.1722 77.8682 26.1327 77.9709 26.092 78.0736C25.8465 78.7157 25.6649 79.4466 25.9221 80.1131C25.9549 80.167 25.9549 80.167 25.9884 80.222C26.0457 80.3191 26.0457 80.3191 26.0457 80.4427C24.6724 80.4427 23.2991 80.4427 21.8843 80.4427C21.9274 80.2702 21.9428 80.2494 22.0671 80.1388C22.4711 79.7486 22.7647 79.2405 23.0379 78.7534C23.0572 78.7192 23.0764 78.6849 23.0962 78.6496C23.5798 77.7789 23.8898 76.8643 24.2006 75.9218C24.519 74.9575 24.8455 73.9947 25.2036 73.0444C25.3659 72.6128 25.5072 72.1737 25.6522 71.7361C25.7771 71.3595 25.903 70.9833 26.0328 70.6083C26.0547 70.5448 26.0547 70.5448 26.0771 70.48C26.153 70.2618 26.2309 70.0446 26.3114 69.8281C26.6105 69.0211 26.8658 68.293 26.5436 67.4477C26.4785 67.3095 26.4029 67.196 26.3032 67.0804C26.2105 66.9697 26.2105 66.9697 26.2105 66.8461ZM28.7238 69.5654C28.7182 69.5986 28.7127 69.6319 28.707 69.6662C28.5134 70.8063 28.2162 71.8898 27.8233 72.9782C27.7379 73.2148 27.6536 73.4519 27.5693 73.6889C27.5402 73.7703 27.511 73.8517 27.4818 73.933C27.3788 74.2215 27.2829 74.5107 27.1944 74.8039C27.1492 74.9508 27.0981 75.0943 27.0448 75.2384C26.9769 75.4056 26.9769 75.4056 26.9521 75.5809C28.135 75.5809 29.3179 75.5809 30.5367 75.5809C30.5059 75.3655 30.4676 75.1914 30.3931 74.992C30.3827 74.9635 30.3724 74.935 30.3617 74.9057C30.3393 74.8443 30.3167 74.7829 30.2941 74.7216C30.2579 74.6236 30.222 74.5255 30.1863 74.4273C30.0991 74.1882 30.0114 73.9494 29.9236 73.7106C29.7543 73.25 29.5868 72.7889 29.4242 72.3259C29.415 72.2997 29.4058 72.2735 29.3963 72.2466C29.0882 71.3684 28.9161 70.4812 28.765 69.5654C28.7514 69.5654 28.7378 69.5654 28.7238 69.5654Z" fill="white"/>
<path d="M0.0475495 66.8461C0.828381 66.8432 1.60921 66.841 2.39005 66.8397C2.75269 66.839 3.11533 66.8382 3.47797 66.8368C3.79443 66.8355 4.1109 66.8347 4.42737 66.8345C4.59458 66.8343 4.76179 66.8339 4.929 66.833C5.61765 66.8294 6.29158 66.8307 6.96947 66.9697C6.99716 66.9753 7.02486 66.9809 7.0534 66.9866C7.74484 67.1281 8.41227 67.4585 8.94716 67.9173C8.9803 67.9444 9.01344 67.9714 9.04759 67.9993C9.81016 68.642 10.1866 69.6226 10.3068 70.5955C10.3387 71.329 10.3673 72.1049 10.1832 72.8204C10.1757 72.8499 10.1682 72.8795 10.1604 72.9099C9.97132 73.6158 9.65059 74.3737 9.07076 74.8393C9.03109 74.8731 8.99141 74.907 8.95054 74.9419C7.80258 75.8962 6.3901 76.0226 4.95057 76.0032C4.84194 76.0024 4.7333 76.0016 4.62466 76.001C4.36247 75.9992 4.1003 75.9964 3.83812 75.9929C3.83986 76.2888 3.84287 76.5847 3.84667 76.8806C3.84782 76.9809 3.8487 77.0812 3.84929 77.1815C3.85586 78.2454 3.93568 79.2767 4.66216 80.1131C4.69992 80.1491 4.73769 80.1851 4.77659 80.2222C4.86817 80.3191 4.86817 80.3191 4.86817 80.4427C3.27737 80.4427 1.68656 80.4427 0.0475495 80.4427C0.0339529 80.4155 0.0203563 80.3883 0.00634766 80.3603C0.0352405 80.3331 0.0641333 80.3059 0.0939017 80.2779C0.232473 80.1386 0.347435 79.9858 0.459568 79.8247C0.490957 79.7796 0.490957 79.7796 0.522981 79.7336C1.01807 78.9694 1.0553 78.0442 1.05239 77.163C1.05256 77.0763 1.05278 76.9897 1.05305 76.903C1.0536 76.6699 1.05339 76.4369 1.053 76.2038C1.05268 75.9585 1.05298 75.7133 1.05317 75.468C1.05339 75.0564 1.0531 74.6448 1.05251 74.2332C1.05184 73.7589 1.05205 73.2847 1.05274 72.8104C1.0533 72.4014 1.05337 71.9924 1.05305 71.5834C1.05286 71.3399 1.05283 71.0964 1.05324 70.853C1.0536 70.624 1.05335 70.395 1.05264 70.166C1.05247 70.0825 1.05252 69.999 1.05279 69.9155C1.05609 68.8111 0.864974 67.7938 0.0596204 66.9811C0.0420404 66.9638 0.0244604 66.9464 0.00634766 66.9285C0.0199443 66.9013 0.0335409 66.8741 0.0475495 66.8461ZM3.83812 68.865C3.83812 70.551 3.83812 72.2369 3.83812 73.974C5.56226 74.042 5.56226 74.042 6.92826 73.2736C7.43336 72.7202 7.53021 71.9135 7.49994 71.1929C7.45758 70.5125 7.28829 69.8606 6.76474 69.3823C5.87468 68.701 4.96899 68.865 3.83812 68.865Z" fill="white"/>
<path d="M123.941 66.7637C124.05 67.9058 124.158 69.0479 124.27 70.2246C124.216 70.2382 124.162 70.2518 124.106 70.2659C124.079 70.22 124.053 70.1741 124.026 70.1268C123.575 69.4176 122.926 69.1292 122.136 68.9371C121.717 68.8572 121.295 68.8566 120.871 68.8519C120.813 68.8512 120.756 68.8504 120.698 68.8496C120.486 68.8468 120.274 68.8443 120.063 68.8418C119.588 68.8359 119.114 68.8299 118.626 68.8238C118.626 69.9251 118.626 71.0264 118.626 72.1611C119.165 72.156 119.705 72.1509 120.261 72.1457C120.514 72.1436 120.514 72.1436 120.772 72.1414C120.927 72.1398 120.927 72.1398 121.082 72.138C121.149 72.1373 121.217 72.1368 121.284 72.1363C121.72 72.1333 122.149 72.1124 122.582 72.066C122.761 72.0468 122.936 72.0329 123.117 72.0375C123.092 72.4079 123.031 72.7698 122.965 73.1345C122.954 73.1955 122.943 73.2564 122.932 73.3174C122.909 73.4441 122.886 73.5709 122.863 73.6976C122.834 73.86 122.805 74.0224 122.776 74.1848C122.753 74.3102 122.731 74.4356 122.708 74.561C122.697 74.621 122.687 74.6809 122.676 74.7408C122.661 74.8242 122.646 74.9076 122.631 74.991C122.618 75.0621 122.618 75.0621 122.605 75.1347C122.581 75.2513 122.581 75.2513 122.54 75.3749C122.465 75.3699 122.465 75.3699 122.375 75.3337C122.312 75.2241 122.312 75.2241 122.249 75.0839C122.056 74.6916 121.735 74.4907 121.336 74.3361C120.987 74.2371 120.653 74.2079 120.292 74.2042C120.249 74.2034 120.206 74.2027 120.163 74.202C120.006 74.1994 119.849 74.1975 119.692 74.1955C119.34 74.1904 118.988 74.1853 118.626 74.18C118.626 75.5941 118.626 77.0081 118.626 78.465C119.184 78.4574 119.184 78.4574 119.754 78.4496C119.869 78.4482 119.985 78.4468 120.105 78.4453C121.12 78.4353 121.12 78.4353 122.115 78.2487C122.147 78.2398 122.179 78.231 122.213 78.2218C122.673 78.0905 123.099 77.9139 123.509 77.6622C123.611 77.5998 123.611 77.5998 123.702 77.5605C123.796 77.5055 123.813 77.45 123.858 77.3526C123.925 77.2893 123.925 77.2893 124.005 77.2264C124.22 77.0461 124.387 76.831 124.559 76.6109C124.6 76.6245 124.64 76.6381 124.682 76.6521C124.63 77.1525 124.567 77.6504 124.494 78.1483C124.484 78.2172 124.474 78.2862 124.464 78.3551C124.444 78.4978 124.423 78.6404 124.402 78.7831C124.376 78.966 124.349 79.149 124.323 79.332C124.303 79.4735 124.282 79.615 124.262 79.7565C124.252 79.8241 124.242 79.8916 124.233 79.9592C124.219 80.0528 124.205 80.1465 124.192 80.2401C124.184 80.2933 124.176 80.3465 124.168 80.4013C124.147 80.5251 124.147 80.5251 124.106 80.6075C124.039 80.6016 123.973 80.5956 123.907 80.5896C123.865 80.5858 123.824 80.5821 123.781 80.5782C123.702 80.5709 123.623 80.5634 123.544 80.5555C122.663 80.4677 121.784 80.4696 120.9 80.4672C120.685 80.4666 120.469 80.4655 120.254 80.4644C119.848 80.4625 119.442 80.461 119.036 80.4596C118.573 80.458 118.11 80.456 117.647 80.4539C116.696 80.4497 115.745 80.446 114.794 80.4427C114.827 80.2662 114.9 80.223 115.041 80.1131C115.741 79.2699 115.802 78.2797 115.798 77.2285C115.798 77.141 115.798 77.0535 115.799 76.966C115.799 76.7311 115.799 76.4961 115.798 76.2612C115.798 76.0139 115.798 75.7665 115.798 75.5192C115.798 75.1042 115.797 74.6892 115.797 74.2742C115.796 73.796 115.796 73.3179 115.796 72.8397C115.796 72.3774 115.796 71.9152 115.795 71.4529C115.795 71.2571 115.795 71.0614 115.795 70.8657C115.795 70.6349 115.795 70.4041 115.794 70.1732C115.794 70.0891 115.794 70.0049 115.794 69.9208C115.795 68.8769 115.71 67.9326 114.984 67.1178C114.913 67.0433 114.913 67.0433 114.794 66.9697C114.794 66.9289 114.794 66.8881 114.794 66.8461C114.836 66.846 114.877 66.8458 114.92 66.8457C115.934 66.8423 116.948 66.8385 117.963 66.8342C118.453 66.8322 118.944 66.8303 119.434 66.8287C119.862 66.8273 120.29 66.8257 120.717 66.8237C120.944 66.8227 121.17 66.8218 121.396 66.8212C121.61 66.8207 121.823 66.8198 122.037 66.8186C122.115 66.8182 122.192 66.818 122.27 66.8179C122.683 66.8174 123.086 66.8042 123.496 66.7475C123.664 66.7251 123.769 66.7294 123.941 66.7637Z" fill="white"/>
<path d="M58.0592 66.7225C58.1211 67.0985 58.1672 67.4741 58.2038 67.8533C58.2092 67.9087 58.2146 67.9641 58.22 68.0196C58.2313 68.1347 58.2424 68.2499 58.2535 68.365C58.2675 68.5114 58.2819 68.6577 58.2964 68.804C58.3077 68.9181 58.3187 69.0322 58.3297 69.1463C58.3374 69.2261 58.3453 69.3058 58.3533 69.3855C58.3812 69.6801 58.3956 69.97 58.3888 70.2659C58.3481 70.2659 58.3073 70.2659 58.2652 70.2659C58.2092 70.1963 58.2092 70.1963 58.1519 70.101C57.7027 69.4002 57.0441 69.1157 56.2536 68.939C55.8462 68.8581 55.4391 68.8564 55.0256 68.852C54.9671 68.8512 54.9085 68.8504 54.85 68.8496C54.6348 68.8468 54.4195 68.8443 54.2043 68.8418C53.4815 68.8329 53.4815 68.8329 52.7442 68.8238C52.7442 69.9251 52.7442 71.0264 52.7442 72.1611C53.2838 72.156 53.8234 72.1509 54.3794 72.1457C54.6321 72.1436 54.6321 72.1436 54.89 72.1414C55.045 72.1398 55.045 72.1398 55.2001 72.138C55.2675 72.1373 55.335 72.1368 55.4025 72.1363C55.8369 72.1333 56.2648 72.1127 56.6969 72.066C56.8916 72.0451 57.0806 72.0334 57.2764 72.0375C57.2134 72.663 57.0935 73.2796 56.9806 73.8975C56.9594 74.0142 56.9383 74.1309 56.9172 74.2476C56.8919 74.3875 56.8665 74.5275 56.841 74.6674C56.8316 74.7194 56.8222 74.7715 56.8124 74.8251C56.8036 74.8733 56.7948 74.9215 56.7857 74.9711C56.778 75.0134 56.7703 75.0557 56.7624 75.0993C56.7443 75.1922 56.7237 75.2834 56.6996 75.3749C56.6251 75.3699 56.6251 75.3699 56.5348 75.3337C56.4715 75.2241 56.4715 75.2241 56.4086 75.0839C56.2155 74.6916 55.895 74.4907 55.4955 74.3362C55.1438 74.2362 54.807 74.2079 54.4422 74.2042C54.3772 74.2031 54.3772 74.2031 54.3109 74.202C54.1509 74.1994 53.9909 74.1975 53.8309 74.1955C53.4723 74.1904 53.1137 74.1853 52.7442 74.18C52.7442 75.5941 52.7442 77.0081 52.7442 78.465C53.1232 78.4599 53.5022 78.4548 53.8927 78.4496C54.0107 78.4482 54.1287 78.4468 54.2503 78.4453C55.0208 78.4345 55.7541 78.4088 56.4936 78.1766C56.5218 78.1679 56.55 78.1592 56.579 78.1502C57.4407 77.8803 58.1992 77.4026 58.6773 76.6109C58.7316 76.6245 58.786 76.6381 58.8421 76.6521C58.7269 77.5223 58.6068 78.3917 58.4833 79.2607C58.4684 79.3655 58.4535 79.4704 58.4387 79.5753C58.4177 79.7238 58.3965 79.8722 58.3753 80.0207C58.3658 80.0882 58.3658 80.0882 58.3561 80.1571C58.3472 80.2191 58.3472 80.2191 58.3381 80.2823C58.333 80.3184 58.3278 80.3545 58.3225 80.3917C58.3064 80.4839 58.3064 80.4839 58.2652 80.6075C58.0302 80.5885 57.7952 80.5693 57.5606 80.5449C56.7299 80.4629 55.8978 80.4694 55.0639 80.4672C54.8484 80.4666 54.6329 80.4655 54.4174 80.4644C54.011 80.4625 53.6047 80.461 53.1983 80.4596C52.735 80.4581 52.2716 80.456 51.8083 80.454C50.8567 80.4497 49.9052 80.446 48.9536 80.4427C48.9823 80.2974 49.0304 80.2371 49.1381 80.135C49.5797 79.6911 49.8031 79.1299 49.8874 78.5183C49.8926 78.4809 49.8978 78.4434 49.9032 78.4048C49.9566 77.9896 49.9599 77.5772 49.9585 77.1591C49.9586 77.0735 49.9588 76.9879 49.9591 76.9023C49.9597 76.6727 49.9595 76.443 49.9591 76.2133C49.9587 75.9712 49.959 75.7291 49.9592 75.487C49.9595 75.0807 49.9592 74.6745 49.9586 74.2682C49.9579 73.8006 49.9581 73.3331 49.9588 72.8655C49.9594 72.4617 49.9594 72.0579 49.9591 71.6541C49.9589 71.414 49.9589 71.1739 49.9593 70.9338C49.9597 70.7078 49.9594 70.4819 49.9587 70.256C49.9585 70.1739 49.9586 70.0917 49.9589 70.0095C49.9619 69.0203 49.8925 68.0147 49.242 67.2169C49.1494 67.1289 49.0529 67.0504 48.9536 66.9697C48.9536 66.9289 48.9536 66.8881 48.9536 66.8461C48.9952 66.846 49.0368 66.8458 49.0797 66.8457C50.0946 66.8423 51.1095 66.8385 52.1244 66.8343C52.6153 66.8322 53.1061 66.8303 53.5969 66.8287C54.0249 66.8274 54.453 66.8257 54.881 66.8237C55.1075 66.8227 55.3339 66.8218 55.5603 66.8212C55.7739 66.8207 55.9875 66.8198 56.2012 66.8186C56.2791 66.8182 56.357 66.818 56.4349 66.8179C56.8647 66.8173 57.2831 66.7986 57.7091 66.7401C57.8281 66.7256 57.9397 66.7189 58.0592 66.7225Z" fill="white"/>
<path d="M21.1009 66.7225C21.144 67.1541 21.187 67.5856 21.2298 68.0172C21.2497 68.2176 21.2697 68.418 21.2897 68.6184C21.309 68.8118 21.3283 69.0053 21.3474 69.1987C21.3547 69.2725 21.3621 69.3462 21.3695 69.42C21.3798 69.5234 21.3901 69.6267 21.4003 69.7301C21.4034 69.7606 21.4064 69.791 21.4096 69.8224C21.4241 69.9708 21.434 70.1167 21.4305 70.2659C21.36 70.2623 21.36 70.2623 21.2657 70.2247C21.1971 70.1348 21.136 70.0465 21.0752 69.9517C20.8972 69.6903 20.7231 69.5121 20.4417 69.3594C20.4029 69.3381 20.3641 69.3167 20.3242 69.2947C20.0595 69.1614 19.7925 69.0728 19.5069 68.9963C19.4592 68.9835 19.4592 68.9835 19.4106 68.9705C18.9565 68.856 18.4964 68.8571 18.0311 68.852C17.9734 68.8512 17.9157 68.8504 17.8581 68.8496C17.6463 68.8468 17.4345 68.8443 17.2228 68.8418C16.7486 68.8359 16.2744 68.8299 15.7859 68.8238C15.7859 69.9251 15.7859 71.0264 15.7859 72.1611C16.3255 72.156 16.8651 72.1509 17.4211 72.1457C17.6738 72.1436 17.6738 72.1436 17.9317 72.1414C18.0867 72.1398 18.0867 72.1398 18.2417 72.138C18.3092 72.1373 18.3767 72.1368 18.4441 72.1363C18.8798 72.1333 19.3089 72.1124 19.7422 72.066C19.9216 72.0468 20.0961 72.0329 20.2769 72.0375C20.282 72.2435 20.2642 72.4321 20.2277 72.6348C20.2199 72.6789 20.2199 72.6789 20.2119 72.7238C20.1947 72.8199 20.1772 72.916 20.1597 73.0121C20.1477 73.0791 20.1357 73.1461 20.1237 73.2131C20.0922 73.3888 20.0604 73.5644 20.0286 73.74C19.9961 73.9195 19.9639 74.0991 19.9317 74.2786C19.8685 74.6304 19.805 74.982 19.7413 75.3337C19.6869 75.3473 19.6325 75.3609 19.5765 75.3749C19.557 75.3366 19.5375 75.2983 19.5174 75.2588C19.249 74.7496 18.9415 74.4814 18.3816 74.3036C18.0712 74.2248 17.7709 74.2075 17.4517 74.2042C17.4091 74.2034 17.3666 74.2027 17.3228 74.202C17.1659 74.1994 17.0089 74.1975 16.852 74.1955C16.5002 74.1904 16.1484 74.1853 15.7859 74.18C15.7859 75.5941 15.7859 77.0081 15.7859 78.465C16.1657 78.4599 16.5456 78.4548 16.937 78.4496C17.0553 78.4482 17.1737 78.4468 17.2957 78.4453C18.697 78.4256 20.1461 78.2729 21.1833 77.229C21.437 76.9667 21.437 76.9667 21.6612 76.68C21.6898 76.6458 21.6898 76.6458 21.7189 76.6109C21.7597 76.6109 21.8005 76.6109 21.8426 76.6109C21.8185 77.0761 21.7572 77.5318 21.6892 77.9922C21.6781 78.068 21.6671 78.1439 21.6561 78.2197C21.6274 78.4174 21.5984 78.615 21.5693 78.8126C21.5396 79.0151 21.5102 79.2176 21.4807 79.4201C21.423 79.8159 21.365 80.2117 21.3069 80.6075C21.0689 80.5881 20.8311 80.5684 20.5935 80.5449C19.7501 80.4657 18.9064 80.4695 18.0602 80.4672C17.8448 80.4666 17.6294 80.4655 17.414 80.4644C17.008 80.4625 16.6019 80.461 16.1958 80.4596C15.7328 80.4581 15.2697 80.456 14.8067 80.454C13.8558 80.4497 12.905 80.446 11.9541 80.4427C11.979 80.2954 11.9922 80.2803 12.1189 80.1801C12.7361 79.6774 12.8777 78.853 12.9542 78.1081C12.9893 77.7029 12.9903 77.2995 12.9901 76.8932C12.9903 76.8148 12.9904 76.7365 12.9906 76.6582C12.9909 76.4469 12.991 76.2356 12.991 76.0243C12.9911 75.8919 12.9912 75.7594 12.9913 75.6269C12.9916 75.1636 12.9918 74.7002 12.9918 74.2368C12.9918 73.8069 12.9922 73.3771 12.9928 72.9472C12.9934 72.5765 12.9936 72.2057 12.9936 71.835C12.9936 71.6143 12.9937 71.3936 12.9941 71.1729C12.9945 70.9651 12.9945 70.7572 12.9942 70.5493C12.9942 70.4737 12.9943 70.3981 12.9945 70.3225C12.998 69.2195 12.9723 67.9645 12.1593 67.1257C12.0746 67.0457 12.0746 67.0457 11.9541 66.9697C11.9541 66.9289 11.9541 66.8881 11.9541 66.8461C11.9959 66.846 12.0377 66.8458 12.0808 66.8457C13.1009 66.8423 14.121 66.8385 15.141 66.8343C15.6344 66.8322 16.1277 66.8303 16.621 66.8287C17.0512 66.8274 17.4814 66.8257 17.9116 66.8237C18.1392 66.8227 18.3668 66.8218 18.5943 66.8212C18.809 66.8207 19.0238 66.8198 19.2385 66.8186C19.3168 66.8182 19.3951 66.818 19.4734 66.8179C19.9043 66.8173 20.3238 66.7988 20.751 66.7401C20.8699 66.7255 20.9814 66.7189 21.1009 66.7225Z" fill="white"/>
<path d="M133.356 66.7818C133.383 66.786 133.41 66.7903 133.438 66.7946C133.517 66.8071 133.595 66.8201 133.674 66.8331C133.719 66.8406 133.764 66.848 133.81 66.8557C133.986 66.8947 134.154 66.951 134.324 67.0109C134.356 67.4049 134.388 67.7989 134.42 68.1929C134.435 68.3758 134.45 68.5587 134.465 68.7417C134.48 68.9183 134.494 69.0949 134.509 69.2714C134.514 69.3388 134.52 69.4061 134.525 69.4734C134.533 69.5678 134.541 69.6622 134.548 69.7566C134.553 69.8103 134.557 69.864 134.562 69.9194C134.569 70.0355 134.573 70.1495 134.571 70.2659C134.389 70.2493 134.302 70.1254 134.19 69.9955C134.15 69.9502 134.109 69.905 134.069 69.8598C134.049 69.8377 134.029 69.8155 134.009 69.7926C133.433 69.1504 132.697 68.7696 131.828 68.7041C131.795 68.7028 131.762 68.7015 131.728 68.7002C131.658 68.697 131.658 68.697 131.587 68.6938C130.897 68.6774 130.168 68.7326 129.616 69.1898C129.354 69.462 129.248 69.7691 129.235 70.1423C129.25 70.5744 129.409 70.9045 129.709 71.2135C129.979 71.4522 130.23 71.6012 130.562 71.735C130.799 71.8314 131.031 71.9377 131.265 72.0427C131.29 72.0542 131.316 72.0658 131.342 72.0777C131.474 72.1372 131.607 72.1968 131.739 72.2565C131.884 72.3218 132.028 72.3867 132.173 72.4515C132.587 72.6377 132.994 72.8213 133.376 73.0676C133.408 73.0877 133.44 73.1078 133.473 73.1284C134.19 73.59 134.787 74.1843 135.065 75.0041C135.081 75.0483 135.096 75.0925 135.111 75.138C135.486 76.2937 135.449 77.5568 134.913 78.6566C134.416 79.5584 133.45 80.1924 132.485 80.4917C132.438 80.5064 132.438 80.5064 132.391 80.5214C131.761 80.7063 131.138 80.7514 130.485 80.7473C130.362 80.7466 130.238 80.7473 130.115 80.7481C128.953 80.7494 127.634 80.6074 126.619 79.9895C126.559 79.8688 126.556 79.7418 126.542 79.6092C126.537 79.5631 126.537 79.5631 126.532 79.5162C126.521 79.4144 126.511 79.3126 126.5 79.2109C126.493 79.1403 126.485 79.0696 126.478 78.999C126.462 78.8509 126.447 78.7027 126.432 78.5545C126.412 78.3646 126.392 78.1747 126.372 77.9848C126.356 77.8389 126.341 77.693 126.326 77.5471C126.319 77.477 126.311 77.407 126.304 77.337C126.293 77.2391 126.283 77.1412 126.273 77.0432C126.27 77.0143 126.267 76.9853 126.264 76.9555C126.25 76.8178 126.243 76.7016 126.289 76.5698C126.33 76.5698 126.371 76.5698 126.413 76.5698C126.489 76.6498 126.489 76.6498 126.57 76.7578C126.614 76.8142 126.614 76.8142 126.658 76.8717C126.7 76.9262 126.7 76.9262 126.743 76.9818C127.163 77.4944 127.636 77.9046 128.241 78.1792C128.301 78.2063 128.301 78.2063 128.362 78.2339C128.707 78.386 129.049 78.4839 129.421 78.5475C129.465 78.5553 129.509 78.5631 129.555 78.5711C130.395 78.6667 131.337 78.628 132.053 78.1303C132.364 77.8701 132.512 77.5021 132.552 77.1054C132.591 76.6052 132.442 76.1982 132.138 75.8003C131.834 75.445 131.484 75.2264 131.071 75.017C131.041 75.0018 131.012 74.9866 130.981 74.9709C130.782 74.8731 130.58 74.7954 130.372 74.7215C130.145 74.6376 129.924 74.5408 129.703 74.4445C129.622 74.4092 129.54 74.3743 129.459 74.3393C129.177 74.2177 128.902 74.091 128.638 73.9329C128.614 73.9185 128.59 73.9042 128.565 73.8894C127.568 73.2853 126.896 72.5874 126.59 71.4329C126.568 71.3325 126.551 71.2328 126.537 71.1311C126.532 71.1006 126.528 71.0702 126.523 71.0387C126.405 70.0953 126.544 69.1145 127.113 68.3294C127.231 68.1863 127.356 68.0514 127.484 67.9174C127.506 67.8925 127.528 67.8676 127.55 67.8419C128.951 66.3041 131.503 66.4873 133.356 66.7818Z" fill="white"/>
<path d="M43.2472 66.5886C43.3035 66.5885 43.3035 66.5885 43.361 66.5884C43.9843 66.5889 44.5877 66.6258 45.2042 66.7225C45.2934 66.7355 45.3825 66.7485 45.4716 66.7616C45.5593 66.775 45.647 66.7886 45.7347 66.8023C45.7737 66.8083 45.8126 66.8143 45.8527 66.8204C46.1418 66.8689 46.4119 66.9531 46.6875 67.0521C46.7731 67.8136 46.8482 68.576 46.9219 69.3388C46.9289 69.4115 46.9289 69.4115 46.9361 69.4857C46.9496 69.6252 46.963 69.7646 46.9764 69.904C46.9805 69.9464 46.9846 69.9887 46.9889 70.0324C46.9926 70.0716 46.9963 70.1108 47.0002 70.1511C47.0035 70.1854 47.0068 70.2196 47.0101 70.2548C47.0166 70.3407 47.0171 70.4269 47.0171 70.513C46.8523 70.513 46.8523 70.513 46.7941 70.4557C46.7694 70.4178 46.7694 70.4178 46.7442 70.3791C46.7275 70.3543 46.7108 70.3294 46.6936 70.3038C46.6463 70.2246 46.6463 70.2246 46.6117 70.1435C46.5011 69.9499 46.284 69.8237 46.1107 69.689C46.0766 69.6612 46.0426 69.6333 46.0075 69.6047C45.0212 68.8329 43.7505 68.6372 42.5311 68.7526C41.5817 68.8761 40.7706 69.3117 40.0952 69.9774C40.0681 70.004 40.0409 70.0306 40.013 70.058C39.1708 70.9508 38.8822 72.2929 38.8896 73.4787C38.8901 73.562 38.8896 73.6452 38.8891 73.7284C38.8873 75.2239 39.3648 76.6183 40.4017 77.705C41.2391 78.4613 42.4393 78.5954 43.515 78.5474C44.5894 78.4603 45.7267 78.0775 46.4947 77.2965C46.5639 77.2289 46.5639 77.2289 46.6463 77.2289C46.6571 77.205 46.668 77.181 46.6791 77.1564C46.7312 77.0596 46.7891 76.9884 46.8626 76.907C46.939 76.8224 47.0142 76.7383 47.0852 76.6491C47.1165 76.6098 47.1165 76.6098 47.1485 76.5697C47.1669 76.5459 47.1853 76.5221 47.2043 76.4976C47.2643 76.4461 47.2643 76.4461 47.4291 76.4461C47.3671 77.1083 47.2776 77.7667 47.1866 78.4254C47.1653 78.5802 47.1443 78.7351 47.1235 78.8899C47.1072 79.0101 47.0907 79.1303 47.0741 79.2504C47.0662 79.3076 47.0584 79.3648 47.0508 79.4219C47.0402 79.5012 47.0291 79.5804 47.018 79.6596C47.0119 79.7045 47.0057 79.7495 46.9994 79.7958C46.9759 79.9071 46.9759 79.9071 46.8935 80.0307C46.7936 80.0748 46.6984 80.1106 46.5948 80.144C46.563 80.1544 46.5311 80.1648 46.4983 80.1755C45.4802 80.4952 44.3894 80.7312 43.3189 80.7409C43.2819 80.7413 43.2449 80.7417 43.2068 80.7421C41.6741 80.7554 41.6741 80.7554 40.9193 80.5663C40.8877 80.5588 40.8561 80.5513 40.8236 80.5436C40.3515 80.4291 39.9133 80.2424 39.4772 80.0307C39.4497 80.0173 39.4221 80.004 39.3938 79.9902C38.2814 79.4429 37.3159 78.5484 36.7579 77.4349C36.7371 77.3942 36.7371 77.3942 36.7159 77.3526C36.2202 76.3748 35.8902 75.3157 35.8843 74.2117C35.884 74.1761 35.8837 74.1405 35.8834 74.1038C35.8739 72.6035 35.8739 72.6035 36.0162 71.9963C36.0292 71.941 36.0292 71.941 36.0424 71.8846C36.1071 71.6168 36.1818 71.3529 36.2634 71.0899C36.2723 71.0609 36.2811 71.0318 36.2902 71.002C36.527 70.2461 36.9396 69.5037 37.4583 68.9062C37.4901 68.8683 37.5218 68.8304 37.5545 68.7914C37.7117 68.6093 37.8682 68.4536 38.0654 68.3161C38.1616 68.2448 38.2499 68.1669 38.3391 68.0871C38.651 67.8112 38.9832 67.6108 39.3536 67.4229C39.3818 67.4084 39.4101 67.3939 39.4392 67.379C40.2741 66.9551 41.1081 66.7681 42.0317 66.6401C42.0815 66.633 42.0815 66.633 42.1324 66.6257C42.5014 66.5808 42.876 66.5888 43.2472 66.5886Z" fill="white"/>
<path d="M88.6719 83.2445C89.2565 83.2445 89.8412 83.2445 90.4435 83.2445C90.5523 83.462 90.6611 83.6796 90.7732 83.9037C90.8496 84.0541 90.8496 84.0541 90.9277 84.2076C91.0783 84.5067 91.2196 84.8101 91.3603 85.114C91.3812 85.1591 91.4021 85.2041 91.4237 85.2506C91.5307 85.483 91.6311 85.7163 91.7246 85.9545C91.779 86.088 91.8429 86.2141 91.9088 86.3423C92.0557 86.6316 92.1982 86.9229 92.3388 87.2153C92.3591 87.2572 92.3795 87.2991 92.4004 87.3423C92.4192 87.3815 92.4379 87.4206 92.4573 87.4609C92.4742 87.496 92.4911 87.5311 92.5085 87.5672C92.5448 87.6531 92.5448 87.6531 92.5448 87.7355C92.572 87.7355 92.5992 87.7355 92.6272 87.7355C92.6386 87.6995 92.6499 87.6635 92.6616 87.6264C92.7065 87.4973 92.7585 87.3788 92.8186 87.2562C92.8503 87.191 92.8503 87.191 92.8826 87.1245C92.9045 87.0797 92.9265 87.0349 92.9491 86.9887C93.0745 86.7327 93.1981 86.4774 93.3059 86.2134C93.42 85.9348 93.5509 85.6651 93.683 85.3947C93.7214 85.3158 93.7597 85.2369 93.7981 85.1579C93.8238 85.1049 93.8495 85.0519 93.8753 84.999C94.0128 84.7162 94.1481 84.4323 94.2829 84.1483C94.4275 83.8448 94.5781 83.5454 94.7285 83.2445C95.2996 83.2445 95.8706 83.2445 96.459 83.2445C96.5099 83.889 96.5608 84.5335 96.6116 85.1781C96.6353 85.4776 96.6589 85.7772 96.6826 86.0768C96.7749 87.2457 96.8671 88.4147 96.956 89.584C96.9632 89.6792 96.9705 89.7744 96.9778 89.8696C96.9877 89.9997 96.9976 90.1297 97.0074 90.2598C97.0103 90.2977 97.0132 90.3357 97.0162 90.3748C97.0201 90.4272 97.0201 90.4272 97.0241 90.4807C97.0264 90.5107 97.0287 90.5407 97.031 90.5717C97.0363 90.6699 97.0358 90.7684 97.0358 90.8668C96.3968 90.8668 95.7578 90.8668 95.0993 90.8668C95.085 90.5981 95.0706 90.3293 95.0557 90.0524C95.0466 89.8823 95.0374 89.7122 95.0281 89.5421C95.0135 89.272 94.9989 89.0019 94.9845 88.7318C94.9729 88.5141 94.9611 88.2963 94.9492 88.0786C94.9447 87.9955 94.9402 87.9124 94.9358 87.8292C94.9297 87.7129 94.9233 87.5966 94.9169 87.4803C94.9152 87.4459 94.9134 87.4114 94.9115 87.3759C94.9033 87.2298 94.8908 87.0937 94.8521 86.9526C94.8416 86.9802 94.831 87.0078 94.8201 87.0362C94.7066 87.3208 94.5745 87.5875 94.4287 87.8566C94.2727 88.1469 94.1318 88.4439 93.9934 88.743C93.8421 89.0659 93.6714 89.3588 93.4925 89.672C92.8806 89.672 92.2688 89.672 91.6384 89.672C91.2608 88.9168 91.2608 88.9168 91.135 88.6561C91.1207 88.6266 91.1064 88.5971 91.0916 88.5667C91.0325 88.4446 90.9734 88.3224 90.9144 88.2003C90.7057 87.769 90.494 87.3394 90.2787 86.9114C90.2101 87.738 90.1604 88.5652 90.1143 89.3932C90.1033 89.5897 90.0922 89.7863 90.0811 89.9828C90.0644 90.2775 90.048 90.5721 90.0315 90.8668C89.4061 90.8668 88.7806 90.8668 88.1362 90.8668C88.2514 89.1888 88.2514 89.1888 88.2941 88.6665C88.2969 88.6327 88.2996 88.5988 88.3025 88.5639C88.3154 88.4061 88.3285 88.2483 88.3421 88.0906C88.3712 87.7445 88.3886 87.3994 88.3997 87.0523C88.4238 86.3316 88.485 85.6135 88.5421 84.8949C88.5595 84.675 88.5766 84.4551 88.5937 84.2352C88.6195 83.9049 88.6457 83.5747 88.6719 83.2445Z" fill="white"/>
<path d="M115.907 83.2445C116.532 83.2445 117.158 83.2445 117.802 83.2445C117.911 83.4076 118.02 83.5708 118.132 83.7389C118.214 83.8578 118.297 83.9763 118.381 84.0943C118.424 84.1546 118.467 84.2149 118.51 84.2752C118.577 84.3701 118.644 84.4649 118.712 84.5597C118.828 84.7239 118.939 84.8894 119.046 85.0599C119.319 85.4937 119.624 85.9072 119.929 86.3192C120.083 86.527 120.231 86.7377 120.375 86.9526C120.391 86.9773 120.408 87.002 120.425 87.0274C120.505 87.1497 120.582 87.2731 120.654 87.4007C120.715 87.5205 120.715 87.5205 120.769 87.5707C120.782 86.143 120.796 84.7154 120.81 83.2445C121.422 83.2445 122.033 83.2445 122.664 83.2445C122.664 85.7599 122.664 88.2752 122.664 90.8668C122.052 90.8668 121.44 90.8668 120.81 90.8668C120.532 90.4966 120.532 90.4966 120.415 90.3227C120.389 90.2851 120.364 90.2476 120.338 90.2089C120.312 90.1703 120.286 90.1316 120.259 90.0917C120.049 89.7829 119.838 89.4771 119.615 89.1775C119.058 88.4237 119.058 88.4237 118.871 88.078C118.806 87.9678 118.742 87.8772 118.663 87.7783C118.485 87.5515 118.321 87.3159 118.157 87.0788C118.128 87.036 118.098 86.9932 118.067 86.949C117.849 86.6345 117.849 86.6345 117.802 86.5406C117.788 87.9683 117.775 89.3959 117.761 90.8668C117.149 90.8668 116.537 90.8668 115.907 90.8668C115.907 88.3515 115.907 85.8361 115.907 83.2445Z" fill="white"/>
<path d="M0.28679 83.2378C0.338304 83.2374 0.389818 83.237 0.442893 83.2366C0.499889 83.2364 0.556884 83.2363 0.61388 83.2361C0.642712 83.236 0.671544 83.2359 0.70125 83.2357C0.854836 83.2351 1.00842 83.2347 1.16201 83.2346C1.28743 83.2344 1.41284 83.2338 1.53826 83.2329C3.25885 83.2201 4.71163 83.4346 6.02871 84.6457C6.65731 85.2902 6.90241 86.2965 6.90175 87.1675C6.8898 87.7173 6.75065 88.2286 6.51557 88.7243C6.50186 88.7583 6.48816 88.7922 6.47404 88.8272C6.327 89.1676 6.07353 89.4134 5.81514 89.672C5.78545 89.7026 5.75576 89.7333 5.72517 89.7648C4.55999 90.8891 2.93118 90.8818 1.42368 90.8749C1.2994 90.8744 1.17512 90.8744 1.05084 90.8745C0.930847 90.8745 0.810854 90.8742 0.690859 90.8739C0.633739 90.8738 0.576619 90.8737 0.519499 90.8737C0.440668 90.8736 0.361838 90.8732 0.283008 90.8728C0.238257 90.8726 0.193506 90.8725 0.147398 90.8723C0.0468714 90.8668 0.0468714 90.8668 0.00566954 90.8256C0.00155542 90.7282 0.000130916 90.6321 0.000437573 90.5347C0.000373299 90.5039 0.000309019 90.4731 0.000242797 90.4414C7.74622e-05 90.3374 0.000209046 90.2334 0.00033824 90.1294C0.000282456 90.0552 0.000209122 89.981 0.000119456 89.9068C-6.90621e-05 89.7046 4.73686e-06 89.5024 0.000135075 89.3003C0.000239028 89.0892 0.000142748 88.8781 7.79623e-05 88.667C2.89821e-06 88.3125 0.000102068 87.9579 0.000298004 87.6034C0.000522252 87.1928 0.000449633 86.7823 0.000222758 86.3718C3.60867e-05 86.02 9.24333e-06 85.6682 0.000117216 85.3164C0.000181617 85.106 0.000189563 84.8955 5.39149e-05 84.6851C-6.46642e-05 84.4874 1.6655e-05 84.2896 0.000255567 84.0918C0.000310283 84.019 0.000294002 83.9462 0.000203543 83.8734C9.18845e-05 83.7745 0.000231058 83.6755 0.000437573 83.5766C0.000345664 83.5474 0.000253759 83.5182 0.000159063 83.4881C0.00121272 83.23 0.035809 83.2394 0.28679 83.2378ZM1.94216 84.8101C1.94216 86.2922 1.94216 87.7742 1.94216 89.3011C3.30662 89.309 3.30662 89.309 4.40526 88.6179C4.82071 88.1652 4.98862 87.5671 4.96309 86.9554C4.89175 86.2724 4.71054 85.7627 4.15901 85.3133C3.4531 84.8199 2.8143 84.8101 1.94216 84.8101Z" fill="white"/>
<path d="M67.8242 83.8625C67.9681 83.98 68.1028 84.1041 68.2362 84.2333C68.2649 84.2585 68.2935 84.2836 68.3231 84.3096C68.5823 84.5456 68.7375 84.8318 68.8954 85.1397C68.9154 85.1773 68.9355 85.2148 68.9561 85.2535C69.4312 86.2488 69.3982 87.6601 69.047 88.6884C68.7037 89.543 68.0047 90.3138 67.1649 90.702C66.9229 90.7898 66.6741 90.8511 66.4233 90.908C66.3798 90.9182 66.3363 90.9284 66.2915 90.9389C65.6195 91.0681 64.9013 91.0268 64.2396 90.8668C64.1973 90.8588 64.1549 90.8509 64.1113 90.8426C63.2145 90.6597 62.6012 90.0236 62.0971 89.3011C62.0775 89.2736 62.0579 89.2461 62.0377 89.2177C61.4766 88.3839 61.3923 87.1777 61.5566 86.2153C61.7122 85.4545 62.0179 84.7762 62.5868 84.2376C62.6767 84.1521 62.6767 84.1521 62.7513 84.0484C63.9193 82.6652 66.5006 82.8827 67.8242 83.8625ZM64.0315 85.2488C63.5008 85.889 63.4015 86.6855 63.4568 87.4882C63.537 88.1271 63.7838 88.6376 64.2396 89.0951C64.2668 89.1279 64.2668 89.1279 64.2945 89.1614C64.6531 89.4604 65.273 89.4732 65.7132 89.4367C66.181 89.3758 66.5645 89.1576 66.8636 88.799C67.3467 88.142 67.4539 87.2901 67.3434 86.4985C67.2467 85.9224 66.9677 85.3354 66.4888 84.9846C66.1475 84.7672 65.8206 84.6639 65.4164 84.671C65.3821 84.6714 65.3479 84.6718 65.3126 84.6722C64.7869 84.6851 64.3945 84.868 64.0315 85.2488Z" fill="white"/>
<path d="M13.7256 83.2445C15.3028 83.2445 16.88 83.2445 18.505 83.2445C18.505 83.7611 18.505 84.2778 18.505 84.8101C17.5804 84.8101 16.6559 84.8101 15.7033 84.8101C15.7033 85.286 15.7033 85.7619 15.7033 86.2522C16.5871 86.2522 17.4708 86.2522 18.3814 86.2522C18.3814 86.7553 18.3814 87.2584 18.3814 87.7767C17.4976 87.7767 16.6138 87.7767 15.7033 87.7767C15.7033 88.2798 15.7033 88.7828 15.7033 89.3012C16.6414 89.3012 17.5796 89.3012 18.5462 89.3012C18.5462 89.8178 18.5462 90.3345 18.5462 90.8668C16.9554 90.8668 15.3646 90.8668 13.7256 90.8668C13.7256 88.3515 13.7256 85.8361 13.7256 83.2445Z" fill="white"/>
<path d="M104.041 83.2445C105.618 83.2445 107.195 83.2445 108.82 83.2445C108.82 83.7611 108.82 84.2778 108.82 84.8101C107.882 84.8101 106.944 84.8101 105.977 84.8101C105.977 85.286 105.977 85.7619 105.977 86.2522C106.874 86.2522 107.772 86.2522 108.696 86.2522C108.696 86.7553 108.696 87.2584 108.696 87.7767C107.799 87.7767 106.902 87.7767 105.977 87.7767C105.977 88.2798 105.977 88.7828 105.977 89.3012C106.929 89.3012 107.881 89.3012 108.861 89.3012C108.861 89.8178 108.861 90.3345 108.861 90.8668C107.27 90.8668 105.68 90.8668 104.041 90.8668C104.041 88.3515 104.041 85.8361 104.041 83.2445Z" fill="white"/>
<path d="M38.6528 83.2445C40.23 83.2445 41.8072 83.2445 43.4323 83.2445C43.4323 83.7611 43.4323 84.2778 43.4323 84.8101C42.4941 84.8101 41.5559 84.8101 40.5893 84.8101C40.5893 85.286 40.5893 85.7619 40.5893 86.2522C41.4867 86.2522 42.3841 86.2522 43.3086 86.2522C43.3086 86.7553 43.3086 87.2584 43.3086 87.7767C42.4113 87.7767 41.5139 87.7767 40.5893 87.7767C40.5893 88.2798 40.5893 88.7828 40.5893 89.3012C41.5275 89.3012 42.4657 89.3012 43.4323 89.3012C43.4323 89.8178 43.4323 90.3345 43.4323 90.8668C41.855 90.8668 40.2778 90.8668 38.6528 90.8668C38.6528 88.3515 38.6528 85.8361 38.6528 83.2445Z" fill="white"/>
<path d="M24.8916 83.2444C25.5578 83.2444 26.2241 83.2444 26.9105 83.2444C27.0497 83.6156 27.0497 83.6156 27.1035 83.8083C27.1153 83.8508 27.1272 83.8932 27.1394 83.9369C27.1514 83.9803 27.1634 84.0237 27.1757 84.0684C27.1875 84.1105 27.1994 84.1527 27.2115 84.196C27.2764 84.4292 27.3371 84.6629 27.3941 84.8981C27.5154 85.3924 27.6636 85.8796 27.8066 86.368C27.8349 86.4647 27.8631 86.5615 27.8913 86.6583C27.9195 86.7549 27.9477 86.8516 27.9759 86.9482C27.9898 86.9957 28.0037 87.0432 28.018 87.0921C28.0914 87.3431 28.1657 87.5937 28.2413 87.8441C28.2566 87.895 28.2719 87.946 28.2876 87.9984C28.317 88.096 28.3465 88.1935 28.3763 88.2909C28.3959 88.3564 28.3959 88.3564 28.416 88.4232C28.4277 88.4616 28.4393 88.4999 28.4513 88.5394C28.4762 88.6418 28.4762 88.6418 28.4762 88.8066C28.5034 88.8066 28.5306 88.8066 28.5586 88.8066C28.5626 88.7685 28.5666 88.7304 28.5708 88.6911C28.6075 88.4348 28.6938 88.1897 28.7696 87.9428C28.8516 87.6697 28.9207 87.3952 28.9851 87.1175C29.0886 86.6734 29.2149 86.2379 29.3466 85.8015C29.3938 85.6438 29.4408 85.486 29.4879 85.3283C29.4997 85.2888 29.5115 85.2493 29.5236 85.2087C29.6052 84.9352 29.6852 84.6613 29.764 84.3871C29.7746 84.3505 29.7851 84.3139 29.7959 84.2762C29.8363 84.1356 29.8767 83.9949 29.9168 83.8542C29.944 83.7589 29.9713 83.6636 29.9987 83.5684C30.0067 83.5401 30.0147 83.5118 30.0229 83.4827C30.0784 83.2903 30.0784 83.2903 30.1242 83.2444C30.1862 83.2405 30.2484 83.2395 30.3105 83.2397C30.3699 83.2397 30.3699 83.2397 30.4304 83.2397C30.495 83.24 30.495 83.24 30.5609 83.2404C30.6047 83.2404 30.6486 83.2405 30.6937 83.2405C30.8344 83.2408 30.975 83.2413 31.1157 83.2418C31.2108 83.242 31.3058 83.2422 31.4009 83.2424C31.6346 83.2428 31.8683 83.2435 32.1019 83.2444C32.1563 83.3949 32.1292 83.4855 32.0781 83.6347C32.0627 83.68 32.0474 83.7254 32.0317 83.7721C32.0146 83.8212 31.9975 83.8703 31.9799 83.9208C31.9537 83.9978 31.9537 83.9978 31.927 84.0762C31.8802 84.2134 31.833 84.3504 31.7856 84.4873C31.7481 84.5959 31.711 84.7046 31.674 84.8133C31.4513 85.4662 31.2215 86.1163 30.9864 86.7648C30.9053 86.9891 30.8259 87.214 30.7474 87.4392C30.7324 87.4815 30.7175 87.5239 30.702 87.5674C30.6321 87.7681 30.5695 87.9667 30.5211 88.1736C30.4386 88.5167 30.3151 88.8457 30.1963 89.1774C30.1722 89.2454 30.1481 89.3134 30.124 89.3814C30.0768 89.5143 30.0296 89.6471 29.9823 89.78C29.8898 90.04 29.7992 90.3007 29.7088 90.5615C29.6343 90.7754 29.6343 90.7754 29.5886 90.8667C28.868 90.8667 28.1474 90.8667 27.4049 90.8667C27.3497 90.6925 27.2944 90.5183 27.2375 90.3388C27.0655 89.802 26.8834 89.269 26.6968 88.7371C26.4891 88.1453 26.2829 87.5531 26.0803 86.9595C26.0539 86.8824 26.0276 86.8052 26.0012 86.7281C25.8738 86.3558 25.749 85.9833 25.6335 85.6071C25.5561 85.3575 25.4716 85.1105 25.3865 84.8635C25.3648 84.8004 25.3648 84.8004 25.3427 84.736C25.2826 84.5615 25.2224 84.3871 25.1619 84.2128C25.1173 84.0838 25.0729 83.9548 25.0286 83.8257C25.0148 83.7863 25.001 83.7468 24.9868 83.7062C24.9743 83.6696 24.9618 83.6329 24.9488 83.5952C24.9378 83.5632 24.9267 83.5311 24.9152 83.4981C24.8916 83.4092 24.8916 83.4092 24.8916 83.2444Z" fill="white"/>
<path d="M76.188 83.2445C80.2573 83.2445 80.2573 83.2445 81.1734 84.1509C81.6284 84.6771 81.799 85.2722 81.7583 85.9628C81.7178 86.3827 81.5936 86.7786 81.3382 87.1175C81.3144 87.1506 81.2905 87.1838 81.266 87.218C80.8609 87.7246 80.2262 88.0336 79.6077 88.1887C79.5563 88.2017 79.5048 88.2147 79.4518 88.2281C78.9905 88.3292 78.6173 88.3123 78.1245 88.3123C78.1245 89.1553 78.1245 89.9983 78.1245 90.8668C77.4854 90.8668 76.8464 90.8668 76.188 90.8668C76.188 88.3515 76.188 85.8361 76.188 83.2445ZM78.1245 84.7689C78.1245 85.4488 78.1245 86.1286 78.1245 86.829C78.6602 86.8328 78.6602 86.8328 79.1545 86.7054C79.1846 86.6944 79.2146 86.6834 79.2456 86.6721C79.5036 86.5609 79.6973 86.3646 79.8208 86.1125C79.8997 85.8639 79.898 85.5711 79.7932 85.3303C79.6349 85.0664 79.3996 84.9373 79.1159 84.8359C78.7609 84.7428 78.7609 84.7428 78.1245 84.7689Z" fill="white"/>
<path d="M129.38 83.2445C131.351 83.2445 133.323 83.2445 135.354 83.2445C135.354 83.7611 135.354 84.2778 135.354 84.8101C134.688 84.8101 134.021 84.8101 133.335 84.8101C133.335 86.8089 133.335 88.8076 133.335 90.8668C132.696 90.8668 132.057 90.8668 131.399 90.8668C131.399 88.8681 131.399 86.8694 131.399 84.8101C130.732 84.8101 130.066 84.8101 129.38 84.8101C129.38 84.2935 129.38 83.7768 129.38 83.2445Z" fill="white"/>
<path d="M50.561 83.2445C51.2001 83.2445 51.8391 83.2445 52.4975 83.2445C52.4975 85.2432 52.4975 87.2419 52.4975 89.3012C53.4085 89.3012 54.3195 89.3012 55.2581 89.3012C55.2581 89.8178 55.2581 90.3345 55.2581 90.8668C53.708 90.8668 52.158 90.8668 50.561 90.8668C50.561 88.3515 50.561 85.8361 50.561 83.2445Z" fill="white"/>
<path d="M79.4151 3.86308C79.5951 4.00237 79.7825 4.12096 79.9751 4.24215C81.2796 5.10281 82.427 6.25502 83.3949 7.47169C83.5787 7.69737 83.7706 7.90698 83.9706 8.11804C84.5398 8.75377 84.9746 9.48576 85.4181 10.2115C85.4599 10.2788 85.5016 10.346 85.5447 10.4153C87.1864 13.0852 88.0895 16.445 88.1206 19.5805C88.1215 19.6594 88.1224 19.7383 88.1234 19.8196C88.1476 22.3917 87.9581 24.7886 87.1407 27.2463C87.0939 27.3895 87.0939 27.3895 87.0461 27.5356C86.2798 29.8528 85.22 32.1336 83.5157 33.9199C83.3019 34.1483 83.111 34.3873 82.9179 34.6332C82.0318 35.7235 81.0271 36.6918 79.8675 37.4863C79.7642 37.5585 79.7642 37.5585 79.6589 37.6321C79.4438 37.779 79.2253 37.9197 79.0062 38.0605C78.904 38.129 78.8019 38.1974 78.6966 38.268C76.93 39.4325 75.0148 40.278 72.977 40.8358C72.9081 40.8555 72.8392 40.8752 72.7682 40.8955C71.5802 41.2312 70.3652 41.3515 69.14 41.4771C68.7599 41.5162 68.3802 41.5588 68.0005 41.6015C67.9935 41.6938 67.9935 41.6938 67.9863 41.788C67.7822 44.2551 67.7822 44.2551 67.0076 45.0048C66.2976 45.5842 64.8163 46.4822 63.8854 46.4822C63.8854 37.5763 63.8854 28.6703 63.8854 19.4945C65.1478 19.9995 67.1534 20.8162 67.8091 22.0784C67.8507 22.3228 67.8507 22.3228 67.8585 22.5858C67.8637 22.7353 67.8637 22.7353 67.869 22.8878C67.8712 22.9956 67.8734 23.1034 67.8756 23.2144C67.8789 23.3285 67.8821 23.4425 67.8854 23.5599C67.9173 24.8521 67.9084 26.1442 67.8952 27.4366C67.8918 27.7784 67.8892 28.1201 67.8864 28.4619C67.8811 29.1045 67.8752 29.747 67.8691 30.3895C67.8621 31.123 67.8559 31.8565 67.8497 32.59C67.8369 34.0945 67.8233 35.599 67.8091 37.1035C68.1271 37.1065 68.4451 37.1083 68.7631 37.1099C68.8522 37.1107 68.9412 37.1116 69.033 37.1124C71.9177 37.1232 74.578 35.7988 76.8923 34.1791C77.1066 34.0311 77.324 33.8884 77.5419 33.7457C78.3307 33.2213 78.9758 32.5639 79.5804 31.8399C79.6601 31.7484 79.7397 31.6569 79.8219 31.5626C80.8566 30.371 81.7021 29.1654 82.3557 27.7248C82.4112 27.6032 82.4112 27.6032 82.4678 27.4792C82.5675 27.2444 82.6546 27.0086 82.7385 26.7678C82.7599 26.7063 82.7814 26.6449 82.8034 26.5816C84.0848 22.8565 84.1524 19.0407 82.9028 15.299C82.8408 15.1123 82.7825 14.9244 82.7247 14.7364C82.2304 13.2135 81.3767 11.9003 80.346 10.69C80.2957 10.6307 80.2455 10.5714 80.1938 10.5103C79.9041 10.169 79.6118 9.83008 79.3182 9.4922C79.2086 9.36314 79.1039 9.22994 78.9998 9.09636C76.7001 6.30421 72.1908 4.69683 68.7063 4.32252C66.9852 4.17147 65.2613 4.41261 63.5983 4.85224C63.5304 4.86989 63.4625 4.88753 63.3925 4.9057C61.2921 5.45995 59.3237 6.37975 57.5725 7.67542C57.3777 7.81898 57.3777 7.81898 57.1276 7.96888C56.6366 8.29468 56.236 8.7369 55.8226 9.15281C55.7778 9.19772 55.733 9.24263 55.6868 9.2889C55.0064 9.97269 54.3825 10.6597 53.8368 11.4556C53.7795 11.538 53.7223 11.6204 53.6633 11.7053C53.5261 11.9072 53.3933 12.1109 53.2626 12.3169C53.1856 12.4324 53.1856 12.4324 53.107 12.5502C52.9515 12.8401 52.8348 13.1359 52.7168 13.4429C52.6208 13.6823 52.5203 13.9166 52.4147 14.1517C51.7622 15.6182 51.3307 17.1287 51.1571 18.7289C51.1495 18.7994 51.1418 18.87 51.1339 18.9427C51.0417 19.9018 51.0394 20.8606 51.0309 21.8232C51.0289 22.0192 51.0269 22.2152 51.0249 22.4113C51.0194 22.9444 51.0147 23.4776 51.0101 24.0107C51.0072 24.3495 51.0041 24.6882 51.0011 25.027C50.9685 28.6453 50.9591 32.2634 50.9631 35.8818C50.9632 36.0009 50.9634 36.1199 50.9635 36.2426C50.9658 38.4286 50.9694 40.6147 50.9741 42.8007C50.9767 44.0299 50.9788 45.2591 50.9799 46.4882C50.9805 47.1741 50.9819 47.86 50.9841 48.5459C50.9852 48.9678 50.9855 49.3896 50.9856 49.8115C50.9858 50.005 50.9864 50.1986 50.9873 50.3921C51.0022 53.7485 51.0022 53.7485 50.0528 54.8598C49.8209 55.0917 49.5475 55.2466 49.2611 55.4003C49.1716 55.4495 49.1716 55.4495 49.0804 55.4996C48.4504 55.8403 47.9164 56.0407 47.2102 56.1547C47.107 56.1715 47.0037 56.1883 46.8974 56.2056C46.7795 56.2245 46.7795 56.2245 46.6592 56.2437C46.6548 51.6833 46.6514 47.1228 46.6494 42.5624C46.6492 42.0231 46.6489 41.4839 46.6487 40.9446C46.6486 40.7836 46.6486 40.7836 46.6485 40.6193C46.6477 38.8846 46.6462 37.1498 46.6444 35.415C46.6426 33.633 46.6416 31.851 46.6412 30.069C46.6409 28.9708 46.6401 27.8725 46.6385 26.7742C46.6375 26.0196 46.6372 25.2649 46.6375 24.5103C46.6376 24.0759 46.6374 23.6415 46.6364 23.207C46.6251 18.2238 47.2739 13.1211 50.2958 8.96739C50.3597 8.87487 50.4236 8.78234 50.4895 8.68701C51.0125 7.95401 51.6164 7.31007 52.2383 6.66084C52.4555 6.43396 52.6685 6.20493 52.8753 5.96851C53.7017 5.02497 54.628 4.3254 55.6943 3.66906C55.9328 3.51835 56.1578 3.35675 56.3848 3.18944C62.7906 -1.29763 73.279 -1.02958 79.4151 3.86308Z" fill="white"/>
<path d="M55.2725 14.9008C58.0767 15.4616 58.0767 15.4616 58.8956 16.5512C59.59 17.619 59.5118 19.0766 59.5066 20.3053C59.5067 20.4482 59.5068 20.5911 59.5071 20.7341C59.5075 21.1211 59.5068 21.5081 59.5059 21.8952C59.505 22.3111 59.5053 22.727 59.5054 23.143C59.5054 23.9488 59.5043 24.7546 59.5028 25.5604C59.5016 26.2113 59.5006 26.8621 59.4999 27.5129C59.4974 29.6825 59.4929 31.852 59.4869 34.0215C59.4867 34.1128 59.4864 34.204 59.4862 34.2981C59.4859 34.3888 59.4857 34.4794 59.4854 34.5729C59.4838 35.1834 59.4824 35.7939 59.4812 36.4044C59.4779 38.0891 59.4737 39.7738 59.4652 41.4584C59.4646 41.5981 59.4639 41.7378 59.4632 41.8775C59.4628 41.946 59.4625 42.0144 59.4621 42.085C59.4598 42.5632 59.4584 43.0415 59.4575 43.5198C59.4561 44.1577 59.4528 44.7956 59.4481 45.4335C59.4467 45.6637 59.4459 45.894 59.4458 46.1242C59.4437 49.0526 59.4437 49.0526 58.4934 50.0171C57.6672 50.6586 56.3257 51.3629 55.2725 51.3629C55.2725 39.3304 55.2725 27.2979 55.2725 14.9008Z" fill="white"/>
<path d="M63.2158 31.4571C63.2241 31.8738 63.2292 32.2905 63.2337 32.7072C63.2361 32.8248 63.2385 32.9425 63.241 33.0637C63.2501 34.1847 63.2501 34.1847 62.9287 34.711C62.1186 35.2718 61.0206 35.3904 60.0576 35.3809C60.0481 34.9825 60.0412 34.5842 60.0366 34.1858C60.0347 34.0504 60.0321 33.9151 60.0287 33.7798C60.0241 33.5845 60.0219 33.3893 60.0202 33.1939C60.0182 33.0767 60.0162 32.9594 60.0142 32.8386C60.066 32.4465 60.1957 32.2422 60.4404 31.9356C61.2118 31.4691 62.338 31.4448 63.2158 31.4571Z" fill="white"/>
</svg>
